<?xml version="1.0" encoding="UTF-8" standalone="no"?>
<!DOCTYPE svg PUBLIC "-//W3C//DTD SVG 1.1//EN" "http://www.w3.org/Graphics/SVG/1.1/DTD/svg11.dtd">
<svg width="100%" height="100%" viewBox="0 0 340 340" version="1.1" xmlns="http://www.w3.org/2000/svg" xmlns:xlink="http://www.w3.org/1999/xlink" xml:space="preserve" xmlns:serif="http://www.serif.com/" style="fill-rule:evenodd;clip-rule:evenodd;stroke-linejoin:round;stroke-miterlimit:2;">
    <g transform="matrix(1,0,0,1,-1157.27,0)">
        <g transform="matrix(0.482249,0,0,0.482249,950.662,-107.119)">
            <rect id="Artboard1" x="428.432" y="222.124" width="705.03" height="705.03" style="fill:none;"/>
            <g id="Artboard11" serif:id="Artboard1">
                <g transform="matrix(2.07362,0,0,2.07362,-1971.31,222.124)">
                    <path d="M1257.27,100L1257.27,80L1297.27,80L1297.27,60L1337.27,60L1337.27,160L1297.27,160L1297.27,140L1257.27,140L1257.27,120L1237.27,120L1237.27,100L1257.27,100Z" style="fill:rgb(254,0,1);"/>
                </g>
                <g transform="matrix(2.07362,0,0,2.07362,-1971.31,222.124)">
                    <path d="M1277.27,220L1277.27,200L1317.27,200L1317.27,160L1337.27,160L1337.27,200L1357.27,200L1357.27,220L1397.27,220L1397.27,260L1237.27,260L1237.27,220L1277.27,220Z"/>
                </g>
            </g>
        </g>
    </g>
</svg>
