<?xml version="1.0" encoding="UTF-8" standalone="no"?>
<!DOCTYPE svg PUBLIC "-//W3C//DTD SVG 1.1//EN" "http://www.w3.org/Graphics/SVG/1.1/DTD/svg11.dtd">
<svg width="100%" height="100%" viewBox="0 0 22 42" version="1.1" xmlns="http://www.w3.org/2000/svg" xmlns:xlink="http://www.w3.org/1999/xlink" xml:space="preserve" xmlns:serif="http://www.serif.com/" style="fill-rule:evenodd;clip-rule:evenodd;stroke-linejoin:round;stroke-miterlimit:2;">
    <g transform="matrix(1,0,0,1,-107.188,-512.471)">
        <g id="Artboard7" transform="matrix(0.647059,0,0,1.23529,107.188,15.8824)">
            <rect x="0" y="402" width="34" height="34" style="fill:none;"/>
            <clipPath id="_clip1">
                <rect x="0" y="402" width="34" height="34"/>
            </clipPath>
            <g clip-path="url(#_clip1)">
                <g transform="matrix(1.54545,0,0,0.809524,-165.654,-12.8572)">
                    <path d="M125.188,534.471L125.188,532.471L127.188,532.471L127.188,534.471L125.188,534.471L125.188,536.471L123.188,536.471L123.188,534.471L125.188,534.471ZM119.188,530.471L121.188,530.471L121.188,532.471L123.188,532.471L123.188,534.471L121.188,534.471L121.188,536.471L119.188,536.471L119.188,534.471L121.188,534.471L121.188,532.471L119.188,532.471L119.188,534.471L117.188,534.471L117.188,536.471L115.188,536.471L115.188,534.471L117.188,534.471L117.188,532.471L119.188,532.471L119.188,530.471ZM113.188,534.471L113.188,532.471L111.188,532.471L111.188,530.471L113.188,530.471L113.188,532.471L115.188,532.471L115.188,534.471L113.188,534.471L113.188,536.471L111.188,536.471L111.188,534.471L113.188,534.471ZM111.188,532.471L109.188,532.471L109.188,534.471L111.188,534.471L111.188,532.471ZM123.188,532.471L123.188,530.471L125.188,530.471L125.188,532.471L123.188,532.471ZM115.188,532.471L115.188,530.471L117.188,530.471L117.188,532.471L115.188,532.471Z"/>
                </g>
                <g transform="matrix(-1.54545,9.91381e-17,-1.89264e-16,-0.809524,199.654,850.857)">
                    <path d="M127.188,534.471L129.188,534.471L129.188,552.471L127.188,552.471L127.188,550.471L125.188,550.471L125.188,548.471L123.188,548.471L123.188,538.471L125.188,538.471L125.188,536.471L127.188,536.471L127.188,534.471Z"/>
                </g>
                <g transform="matrix(1.54545,-9.91381e-17,-1.89264e-16,-0.809524,-165.654,850.857)">
                    <path d="M127.188,534.471L129.188,534.471L129.188,552.471L127.188,552.471L127.188,550.471L125.188,550.471L125.188,548.471L123.188,548.471L123.188,538.471L125.188,538.471L125.188,536.471L127.188,536.471L127.188,534.471Z"/>
                </g>
                <g transform="matrix(-9.46318e-17,-0.809524,-1.54545,4.9569e-17,856.909,506.581)">
                    <path d="M127.188,534.471L129.188,534.471L129.188,552.471L127.188,552.471L127.188,550.471L125.188,550.471L125.188,548.471L123.188,548.471L123.188,538.471L125.188,538.471L125.188,536.471L127.188,536.471L127.188,534.471Z"/>
                </g>
                <g transform="matrix(1.54545,0,0,0.809524,-165.654,-12.8572)">
                    <path d="M127.188,534.471L129.188,534.471L129.188,552.471L127.188,552.471L127.188,550.471L125.188,550.471L125.188,548.471L123.188,548.471L123.188,538.471L125.188,538.471L125.188,536.471L127.188,536.471L127.188,534.471Z"/>
                </g>
                <g transform="matrix(-1.54545,0,0,0.809524,199.654,-12.8572)">
                    <path d="M127.188,534.471L129.188,534.471L129.188,552.471L127.188,552.471L127.188,550.471L125.188,550.471L125.188,548.471L123.188,548.471L123.188,538.471L125.188,538.471L125.188,536.471L127.188,536.471L127.188,534.471Z"/>
                </g>
                <g transform="matrix(-9.46318e-17,0.809524,1.54545,4.9569e-17,-822.909,331.419)">
                    <path d="M127.188,534.471L129.188,534.471L129.188,552.471L127.188,552.471L127.188,550.471L125.188,550.471L125.188,548.471L123.188,548.471L123.188,538.471L125.188,538.471L125.188,536.471L127.188,536.471L127.188,534.471Z"/>
                </g>
            </g>
        </g>
    </g>
</svg>
