<?xml version="1.0" encoding="UTF-8" standalone="no"?>
<!DOCTYPE svg PUBLIC "-//W3C//DTD SVG 1.1//EN" "http://www.w3.org/Graphics/SVG/1.1/DTD/svg11.dtd">
<svg width="100%" height="100%" viewBox="0 0 22 42" version="1.1" xmlns="http://www.w3.org/2000/svg" xmlns:xlink="http://www.w3.org/1999/xlink" xml:space="preserve" xmlns:serif="http://www.serif.com/" style="fill-rule:evenodd;clip-rule:evenodd;stroke-linejoin:round;stroke-miterlimit:2;">
    <g transform="matrix(0.647059,0,0,1.23529,0,-496.589)">
        <g id="Artboard7">
            <rect x="0" y="402" width="34" height="34" style="fill:none;"/>
            <g>
                <clipPath id="_clip1">
                    <rect x="0" y="402" width="34" height="34"/>
                </clipPath>
                <g clip-path="url(#_clip1)">
                    <g transform="matrix(1.54545,0,0,0.809524,-165.654,-12.8572)">
                        <g opacity="0.5">
                            <path d="M109.188,550.471L107.188,550.471L107.188,552.471L109.188,552.471L109.188,550.471ZM111.188,548.471L109.188,548.471L109.188,550.471L111.188,550.471L111.188,548.471ZM113.188,546.471L111.188,546.471L111.188,548.471L113.188,548.471L113.188,546.471ZM109.188,546.471L107.188,546.471L107.188,548.471L109.188,548.471L109.188,546.471ZM109.188,544.471L109.188,542.471L107.188,542.471L107.188,544.471L109.188,544.471L109.188,546.471L111.188,546.471L111.188,544.471L109.188,544.471ZM113.188,542.471L111.188,542.471L111.188,544.471L113.188,544.471L113.188,542.471ZM111.188,540.471L109.188,540.471L109.188,542.471L111.188,542.471L111.188,540.471ZM113.188,538.471L111.188,538.471L111.188,540.471L113.188,540.471L113.188,538.471ZM109.188,538.471L107.188,538.471L107.188,540.471L109.188,540.471L109.188,538.471ZM109.188,536.471L109.188,534.471L107.188,534.471L107.188,536.471L109.188,536.471L109.188,538.471L111.188,538.471L111.188,536.471L109.188,536.471Z" style="fill:rgb(255,0,0);"/>
                        </g>
                    </g>
                    <g transform="matrix(-1.54545,9.91381e-17,1.89264e-16,0.809524,199.654,-29.0477)">
                        <g opacity="0.5">
                            <path d="M109.188,550.471L107.188,550.471L107.188,552.471L109.188,552.471L109.188,550.471ZM111.188,548.471L109.188,548.471L109.188,550.471L111.188,550.471L111.188,548.471ZM113.188,546.471L111.188,546.471L111.188,548.471L113.188,548.471L113.188,546.471ZM109.188,546.471L107.188,546.471L107.188,548.471L109.188,548.471L109.188,546.471ZM109.188,544.471L109.188,542.471L107.188,542.471L107.188,544.471L109.188,544.471L109.188,546.471L111.188,546.471L111.188,544.471L109.188,544.471ZM113.188,542.471L111.188,542.471L111.188,544.471L113.188,544.471L113.188,542.471ZM111.188,540.471L109.188,540.471L109.188,542.471L111.188,542.471L111.188,540.471ZM113.188,538.471L111.188,538.471L111.188,540.471L113.188,540.471L113.188,538.471ZM109.188,538.471L107.188,538.471L107.188,540.471L109.188,540.471L109.188,538.471ZM109.188,536.471L109.188,534.471L107.188,534.471L107.188,536.471L109.188,536.471L109.188,538.471L111.188,538.471L111.188,536.471L109.188,536.471Z" style="fill:rgb(255,0,0);"/>
                        </g>
                    </g>
                    <g transform="matrix(-1.54545,9.91381e-17,-1.89264e-16,-0.809524,199.654,850.857)">
                        <path d="M127.188,534.471L129.188,534.471L129.188,552.471L127.188,552.471L127.188,550.471L125.188,550.471L125.188,548.471L123.188,548.471L123.188,538.471L125.188,538.471L125.188,536.471L127.188,536.471L127.188,534.471Z" style="fill:rgb(255,0,0);"/>
                    </g>
                    <g transform="matrix(-2.83895e-16,-0.809524,1.54545,-1.48707e-16,-819.818,521.152)">
                        <path d="M127.188,534.471L129.188,534.471L129.188,548.471L127.188,548.471L127.188,550.471L125.188,550.471L125.188,548.471L123.188,548.471L123.188,534.471L125.188,534.471L125.188,532.471L127.188,532.471L127.188,534.471Z" style="fill:rgb(255,0,0);"/>
                    </g>
                    <g transform="matrix(-9.46318e-17,-0.809524,-1.54545,4.9569e-17,856.909,506.581)">
                        <path d="M127.188,534.471L129.188,534.471L129.188,552.471L127.188,552.471L127.188,550.471L125.188,550.471L125.188,548.471L123.188,548.471L123.188,538.471L125.188,538.471L125.188,536.471L127.188,536.471L127.188,534.471Z" style="fill:rgb(255,0,0);"/>
                    </g>
                    <g transform="matrix(1.54545,0,0,0.809524,-165.654,-12.8572)">
                        <path d="M127.188,534.471L129.188,534.471L129.188,552.471L127.188,552.471L127.188,550.471L125.188,550.471L125.188,548.471L123.188,548.471L123.188,538.471L125.188,538.471L125.188,536.471L127.188,536.471L127.188,534.471Z" style="fill:rgb(255,0,0);"/>
                    </g>
                    <g transform="matrix(-9.46318e-17,0.809524,1.54545,4.9569e-17,-822.909,331.419)">
                        <path d="M127.188,534.471L129.188,534.471L129.188,552.471L127.188,552.471L127.188,550.471L125.188,550.471L125.188,548.471L123.188,548.471L123.188,538.471L125.188,538.471L125.188,536.471L127.188,536.471L127.188,534.471Z" style="fill:rgb(255,0,0);"/>
                    </g>
                </g>
            </g>
        </g>
    </g>
</svg>
