<?xml version="1.0" encoding="UTF-8" standalone="no"?>
<!DOCTYPE svg PUBLIC "-//W3C//DTD SVG 1.1//EN" "http://www.w3.org/Graphics/SVG/1.1/DTD/svg11.dtd">
<svg width="100%" height="100%" viewBox="0 0 14 18" version="1.1" xmlns="http://www.w3.org/2000/svg" xmlns:xlink="http://www.w3.org/1999/xlink" xml:space="preserve" xmlns:serif="http://www.serif.com/" style="fill-rule:evenodd;clip-rule:evenodd;stroke-linejoin:round;stroke-miterlimit:2;">
    <g transform="matrix(1,0,0,1,-89.6567,-282.665)">
        <g id="Artboard8" transform="matrix(1,0,0,1,87.6567,-1.33522)">
            <rect x="2" y="284" width="14" height="18" style="fill:none;"/>
            <clipPath id="_clip1">
                <rect x="2" y="284" width="14" height="18"/>
            </clipPath>
            <g clip-path="url(#_clip1)">
                <g transform="matrix(1,0,0,1,-4,4)">
                    <path d="M8,296L8,298L18,298L18,288L16,288L16,286L8,286L8,288L14,288L14,290L8,290L8,292L6,292L6,296L8,296ZM10,296L14,296L14,292L10,292L10,296Z"/>
                </g>
            </g>
        </g>
    </g>
</svg>
