<?xml version="1.0" encoding="UTF-8" standalone="no"?>
<!DOCTYPE svg PUBLIC "-//W3C//DTD SVG 1.1//EN" "http://www.w3.org/Graphics/SVG/1.1/DTD/svg11.dtd">
<svg width="100%" height="100%" viewBox="0 0 14 18" version="1.1" xmlns="http://www.w3.org/2000/svg" xmlns:xlink="http://www.w3.org/1999/xlink" xml:space="preserve" xmlns:serif="http://www.serif.com/" style="fill-rule:evenodd;clip-rule:evenodd;stroke-linejoin:round;stroke-miterlimit:2;">
    <g transform="matrix(1,0,0,1,-89.6567,-282.665)">
        <g id="Artboard8" transform="matrix(1,0,0,1,87.6567,-1.33522)">
            <rect x="2" y="284" width="14" height="18" style="fill:none;"/>
            <clipPath id="_clip1">
                <rect x="2" y="284" width="14" height="18"/>
            </clipPath>
            <g clip-path="url(#_clip1)">
                <g transform="matrix(1,0,0,1,-122,-2)">
                    <path d="M128,294L128,286L124,286L124,304L128,304L128,300L130,300L130,302L132,302L132,304L136,304L136,302L134,302L134,300L132,300L132,298L130,298L130,296L132,296L132,294L134,294L134,292L130,292L130,294L128,294Z"/>
                </g>
            </g>
        </g>
    </g>
</svg>
