<?xml version="1.0" encoding="UTF-8" standalone="no"?>
<!DOCTYPE svg PUBLIC "-//W3C//DTD SVG 1.1//EN" "http://www.w3.org/Graphics/SVG/1.1/DTD/svg11.dtd">
<svg width="100%" height="100%" viewBox="0 0 14 18" version="1.1" xmlns="http://www.w3.org/2000/svg" xmlns:xlink="http://www.w3.org/1999/xlink" xml:space="preserve" xmlns:serif="http://www.serif.com/" style="fill-rule:evenodd;clip-rule:evenodd;stroke-linejoin:round;stroke-miterlimit:2;">
    <g transform="matrix(1,0,0,1,-89.6567,-282.665)">
        <g id="Artboard8" transform="matrix(1,0,0,1,87.6567,-1.33522)">
            <rect x="2" y="284" width="14" height="18" style="fill:none;"/>
            <clipPath id="_clip1">
                <rect x="2" y="284" width="14" height="18"/>
            </clipPath>
            <g clip-path="url(#_clip1)">
                <g transform="matrix(1,0,0,1,-178,-2)">
                    <path d="M190,294L190,292L182,292L182,294L180,294L180,302L182,302L182,304L190,304L190,302L192,302L192,294L190,294ZM184,302L188,302L188,294L184,294L184,302Z"/>
                </g>
            </g>
        </g>
    </g>
</svg>
