<?xml version="1.0" encoding="UTF-8" standalone="no"?>
<!DOCTYPE svg PUBLIC "-//W3C//DTD SVG 1.1//EN" "http://www.w3.org/Graphics/SVG/1.1/DTD/svg11.dtd">
<svg width="100%" height="100%" viewBox="0 0 14 18" version="1.1" xmlns="http://www.w3.org/2000/svg" xmlns:xlink="http://www.w3.org/1999/xlink" xml:space="preserve" xmlns:serif="http://www.serif.com/" style="fill-rule:evenodd;clip-rule:evenodd;stroke-linejoin:round;stroke-miterlimit:2;">
    <g transform="matrix(1,0,0,1,-89.6567,-282.665)">
        <g id="Artboard8" transform="matrix(1,0,0,1,87.6567,-1.33522)">
            <rect x="2" y="284" width="14" height="18" style="fill:none;"/>
            <clipPath id="_clip1">
                <rect x="2" y="284" width="14" height="18"/>
            </clipPath>
            <g clip-path="url(#_clip1)">
                <g transform="matrix(1,0,0,1,-192,-2)">
                    <path d="M204,292L194,292L194,308L198,308L198,304L204,304L204,302L206,302L206,294L204,294L204,292ZM198,302L202,302L202,294L198,294L198,302Z"/>
                </g>
            </g>
        </g>
    </g>
</svg>
