<?xml version="1.0" encoding="UTF-8" standalone="no"?>
<!DOCTYPE svg PUBLIC "-//W3C//DTD SVG 1.1//EN" "http://www.w3.org/Graphics/SVG/1.1/DTD/svg11.dtd">
<svg width="100%" height="100%" viewBox="0 0 18 18" version="1.1" xmlns="http://www.w3.org/2000/svg" xmlns:xlink="http://www.w3.org/1999/xlink" xml:space="preserve" xmlns:serif="http://www.serif.com/" style="fill-rule:evenodd;clip-rule:evenodd;stroke-linejoin:round;stroke-miterlimit:2;">
    <g transform="matrix(1,0,0,1,-112.062,-282.685)">
        <g id="Artboard10" transform="matrix(0.970488,0,0,1,85.3435,-1.31514)">
            <rect x="27.531" y="284" width="18" height="18" style="fill:none;"/>
            <clipPath id="_clip1">
                <rect x="27.531" y="284" width="18" height="18"/>
            </clipPath>
            <g clip-path="url(#_clip1)">
                <g transform="matrix(1.03041,0,0,1,-258.923,-2)">
                    <path d="M284,300L284,304L280,304L280,300L278,300L278,292L282,292L282,296L284,296L284,292L288,292L288,296L290,296L290,292L294,292L294,300L292,300L292,304L288,304L288,300L284,300Z"/>
                </g>
            </g>
        </g>
    </g>
</svg>
