<?xml version="1.0" encoding="UTF-8" standalone="no"?>
<!DOCTYPE svg PUBLIC "-//W3C//DTD SVG 1.1//EN" "http://www.w3.org/Graphics/SVG/1.1/DTD/svg11.dtd">
<svg width="100%" height="100%" viewBox="0 0 12 18" version="1.1" xmlns="http://www.w3.org/2000/svg" xmlns:xlink="http://www.w3.org/1999/xlink" xml:space="preserve" xmlns:serif="http://www.serif.com/" style="fill-rule:evenodd;clip-rule:evenodd;stroke-linejoin:round;stroke-miterlimit:2;">
    <g transform="matrix(1,0,0,1,-106.981,-299.947)">
        <g id="Artboard20" transform="matrix(1.20467,0,0,1.50659,-23.1237,-161.919)">
            <rect x="108" y="306.564" width="9.961" height="11.947" style="fill:none;"/>
            <clipPath id="_clip1">
                <rect x="108" y="306.564" width="9.961" height="11.947"/>
            </clipPath>
            <g clip-path="url(#_clip1)">
                <g transform="matrix(0.830103,0,0,0.66375,-225.701,116.732)">
                    <path d="M402,292L402,294L408,294L408,296L406,296L406,298L404,298L404,300L402,300L402,304L412,304L412,302L406,302L406,300L408,300L408,298L410,298L410,296L412,296L412,292L402,292Z"/>
                </g>
            </g>
        </g>
    </g>
</svg>
