<?xml version="1.0" encoding="UTF-8" standalone="no"?>
<!DOCTYPE svg PUBLIC "-//W3C//DTD SVG 1.1//EN" "http://www.w3.org/Graphics/SVG/1.1/DTD/svg11.dtd">
<svg width="100%" height="100%" viewBox="0 0 16 18" version="1.1" xmlns="http://www.w3.org/2000/svg" xmlns:xlink="http://www.w3.org/1999/xlink" xml:space="preserve" xmlns:serif="http://www.serif.com/" style="fill-rule:evenodd;clip-rule:evenodd;stroke-linejoin:round;stroke-miterlimit:2;">
    <g transform="matrix(1,0,0,1,-101.657,-333.617)">
        <g id="Artboard12" transform="matrix(1.27805,0,0,1.07882,15.8341,27.2318)">
            <rect x="67.151" y="284" width="12.519" height="16.685" style="fill:none;"/>
            <clipPath id="_clip1">
                <rect x="67.151" y="284" width="12.519" height="16.685"/>
            </clipPath>
            <g clip-path="url(#_clip1)">
                <g transform="matrix(0.782442,0,0,0.926937,-222.352,-36.7202)">
                    <path d="M374,354L380,354L380,362L374,362L374,360L370,360L370,362L372,362L372,364L382,364L382,362L384,362L384,354L382,354L382,352L374,352L374,348L384,348L384,346L370,346L370,356L374,356L374,354Z"/>
                </g>
            </g>
        </g>
    </g>
</svg>
