<?xml version="1.0" encoding="UTF-8" standalone="no"?>
<!DOCTYPE svg PUBLIC "-//W3C//DTD SVG 1.1//EN" "http://www.w3.org/Graphics/SVG/1.1/DTD/svg11.dtd">
<svg width="100%" height="100%" viewBox="0 0 18 18" version="1.1" xmlns="http://www.w3.org/2000/svg" xmlns:xlink="http://www.w3.org/1999/xlink" xml:space="preserve" xmlns:serif="http://www.serif.com/" style="fill-rule:evenodd;clip-rule:evenodd;stroke-linejoin:round;stroke-miterlimit:2;">
    <g transform="matrix(1,0,0,1,-106.574,-301.755)">
        <g id="Artboard13" transform="matrix(1.125,0,0,1,87.542,0.178075)">
            <rect x="16.918" y="301.577" width="16" height="18" style="fill:none;"/>
            <clipPath id="_clip1">
                <rect x="16.918" y="301.577" width="16" height="18"/>
            </clipPath>
            <g clip-path="url(#_clip1)">
                <g transform="matrix(0.888889,0,0,1,13.3622,15.5773)">
                    <path d="M4,304L4,300L6,300L6,294L8,294L8,290L10,290L10,286L14,286L14,290L16,290L16,294L18,294L18,300L20,300L20,304L16,304L16,300L8,300L8,304L4,304ZM14,294L10,294L10,298L14,298L14,294Z"/>
                </g>
            </g>
        </g>
    </g>
</svg>
