<?xml version="1.0" encoding="UTF-8" standalone="no"?>
<!DOCTYPE svg PUBLIC "-//W3C//DTD SVG 1.1//EN" "http://www.w3.org/Graphics/SVG/1.1/DTD/svg11.dtd">
<svg width="100%" height="100%" viewBox="0 0 18 18" version="1.1" xmlns="http://www.w3.org/2000/svg" xmlns:xlink="http://www.w3.org/1999/xlink" xml:space="preserve" xmlns:serif="http://www.serif.com/" style="fill-rule:evenodd;clip-rule:evenodd;stroke-linejoin:round;stroke-miterlimit:2;">
    <g transform="matrix(1,0,0,1,-106.574,-301.755)">
        <g id="Artboard13" transform="matrix(1.125,0,0,1,87.542,0.178075)">
            <rect x="16.918" y="301.577" width="16" height="18" style="fill:none;"/>
            <clipPath id="_clip1">
                <rect x="16.918" y="301.577" width="16" height="18"/>
            </clipPath>
            <g clip-path="url(#_clip1)">
                <g transform="matrix(0.888889,0,0,1,-143.082,15.5773)">
                    <path d="M184,290L184,286L180,286L180,304L184,304L184,298L186,298L186,302L190,302L190,298L192,298L192,304L196,304L196,286L192,286L192,290L190,290L190,294L186,294L186,290L184,290Z"/>
                </g>
            </g>
        </g>
    </g>
</svg>
