<?xml version="1.0" encoding="UTF-8" standalone="no"?>
<!DOCTYPE svg PUBLIC "-//W3C//DTD SVG 1.1//EN" "http://www.w3.org/Graphics/SVG/1.1/DTD/svg11.dtd">
<svg width="100%" height="100%" viewBox="0 0 18 18" version="1.1" xmlns="http://www.w3.org/2000/svg" xmlns:xlink="http://www.w3.org/1999/xlink" xml:space="preserve" xmlns:serif="http://www.serif.com/" style="fill-rule:evenodd;clip-rule:evenodd;stroke-linejoin:round;stroke-miterlimit:2;">
    <g transform="matrix(1,0,0,1,-106.574,-301.755)">
        <g id="Artboard13" transform="matrix(1.125,0,0,1,87.542,0.178075)">
            <rect x="16.918" y="301.577" width="16" height="18" style="fill:none;"/>
            <g transform="matrix(0.888889,0,0,1,-269.304,15.5773)">
                <path d="M332,300L334,300L334,296L336,296L336,290L338,290L338,286L334,286L334,290L332,290L332,296L328,296L328,290L326,290L326,286L322,286L322,290L324,290L324,296L326,296L326,300L328,300L328,304L332,304L332,300Z"/>
            </g>
        </g>
    </g>
</svg>
