<?xml version="1.0" encoding="UTF-8" standalone="no"?>
<!DOCTYPE svg PUBLIC "-//W3C//DTD SVG 1.1//EN" "http://www.w3.org/Graphics/SVG/1.1/DTD/svg11.dtd">
<svg width="100%" height="100%" viewBox="0 0 1080 1080" version="1.1" xmlns="http://www.w3.org/2000/svg" xmlns:xlink="http://www.w3.org/1999/xlink" xml:space="preserve" xmlns:serif="http://www.serif.com/" style="fill-rule:evenodd;clip-rule:evenodd;stroke-linejoin:round;stroke-miterlimit:2;">
    <rect id="Artboard1" x="0" y="0" width="1080" height="1080" style="fill:none;"/>
    <g transform="matrix(5.4,0,0,5.4,-2221.28,-2155.56)">
        <g id="Artboard11" serif:id="Artboard1">
            <g>
                <g transform="matrix(1,0,0,1,-38.6513,-0.822356)">
                    <path d="M600,480L600,400L500,400L500,480L480,480L480,500L620,500L620,480L600,480ZM580,420L520,420L520,480L580,480L580,420Z" style="fill:rgb(192,8,0);"/>
                </g>
                <g transform="matrix(1,0,0,1,-38.6513,-0.822356)">
                    <path d="M560,520L540,520L540,600L560,600L560,520ZM520,520L500,520L500,580L520,580L520,520ZM600,520L580,520L580,580L600,580L600,520Z" style="fill:rgb(192,8,0);"/>
                </g>
            </g>
        </g>
    </g>
</svg>
