<?xml version="1.0" encoding="UTF-8" standalone="no"?>
<!DOCTYPE svg PUBLIC "-//W3C//DTD SVG 1.1//EN" "http://www.w3.org/Graphics/SVG/1.1/DTD/svg11.dtd">
<svg width="100%" height="100%" viewBox="0 0 12 18" version="1.1" xmlns="http://www.w3.org/2000/svg" xmlns:xlink="http://www.w3.org/1999/xlink" xml:space="preserve" xmlns:serif="http://www.serif.com/" style="fill-rule:evenodd;clip-rule:evenodd;stroke-linejoin:round;stroke-miterlimit:2;">
    <g transform="matrix(1,0,0,1,-106.981,-299.947)">
        <g id="Artboard20" transform="matrix(1.20467,0,0,1.50659,-23.1237,-161.919)">
            <rect x="108" y="306.564" width="9.961" height="11.947" style="fill:none;"/>
            <clipPath id="_clip1">
                <rect x="108" y="306.564" width="9.961" height="11.947"/>
            </clipPath>
            <g clip-path="url(#_clip1)">
                <g transform="matrix(0.830103,0,0,0.66375,-147.672,116.732)">
                    <path d="M312,300L312,292L308,292L308,300L310,300L310,306L306,306L306,308L312,308L312,306L314,306L314,302L316,302L316,300L318,300L318,292L314,292L314,300L312,300Z"/>
                </g>
            </g>
        </g>
    </g>
</svg>
