<?xml version="1.0" encoding="UTF-8" standalone="no"?>
<!DOCTYPE svg PUBLIC "-//W3C//DTD SVG 1.1//EN" "http://www.w3.org/Graphics/SVG/1.1/DTD/svg11.dtd">
<svg width="100%" height="100%" viewBox="0 0 22 42" version="1.1" xmlns="http://www.w3.org/2000/svg" xmlns:xlink="http://www.w3.org/1999/xlink" xml:space="preserve" xmlns:serif="http://www.serif.com/" style="fill-rule:evenodd;clip-rule:evenodd;stroke-linejoin:round;stroke-miterlimit:2;">
    <g transform="matrix(1,0,0,1,-107.188,-512.471)">
        <g id="Artboard7" transform="matrix(0.647059,0,0,1.23529,107.188,15.8824)">
            <rect x="0" y="402" width="34" height="34" style="fill:none;"/>
            <clipPath id="_clip1">
                <rect x="0" y="402" width="34" height="34"/>
            </clipPath>
            <g clip-path="url(#_clip1)">
                <g transform="matrix(1.54545,0,0,0.809524,-165.654,-12.8572)">
                    <path d="M113.188,548.471L115.188,548.471L115.188,550.471L117.188,550.471L117.188,548.471L119.188,548.471L119.188,550.471L117.188,550.471L117.188,552.471L119.188,552.471L119.188,554.471L117.188,554.471L117.188,552.471L115.188,552.471L115.188,554.471L113.188,554.471L113.188,552.471L115.188,552.471L115.188,550.471L113.188,550.471L113.188,552.471L111.188,552.471L111.188,550.471L113.188,550.471L113.188,548.471ZM111.188,554.471L109.188,554.471L109.188,552.471L111.188,552.471L111.188,554.471ZM123.188,554.471L121.188,554.471L121.188,552.471L123.188,552.471L123.188,554.471ZM127.188,554.471L125.188,554.471L125.188,552.471L127.188,552.471L127.188,554.471ZM125.188,552.471L123.188,552.471L123.188,550.471L125.188,550.471L125.188,552.471ZM121.188,552.471L119.188,552.471L119.188,550.471L121.188,550.471L121.188,552.471ZM107.188,552.471L107.188,550.471L109.188,550.471L109.188,552.471L107.188,552.471ZM129.188,550.471L129.188,552.471L127.188,552.471L127.188,550.471L129.188,550.471ZM123.188,550.471L121.188,550.471L121.188,548.471L123.188,548.471L123.188,550.471ZM127.188,548.471L127.188,550.471L125.188,550.471L125.188,548.471L127.188,548.471ZM109.188,550.471L109.188,548.471L111.188,548.471L111.188,550.471L109.188,550.471ZM107.188,548.471L107.188,546.471L109.188,546.471L109.188,548.471L107.188,548.471ZM111.188,548.471L111.188,546.471L113.188,546.471L113.188,548.471L111.188,548.471ZM127.188,546.471L125.188,546.471L125.188,548.471L123.188,548.471L123.188,546.471L125.188,546.471L125.188,544.471L123.188,544.471L123.188,542.471L125.188,542.471L125.188,544.471L127.188,544.471L127.188,542.471L129.188,542.471L129.188,544.471L127.188,544.471L127.188,546.471L129.188,546.471L129.188,548.471L127.188,548.471L127.188,546.471ZM109.188,546.471L109.188,544.471L111.188,544.471L111.188,546.471L109.188,546.471ZM109.188,540.471L111.188,540.471L111.188,538.471L113.188,538.471L113.188,540.471L111.188,540.471L111.188,542.471L113.188,542.471L113.188,544.471L111.188,544.471L111.188,542.471L109.188,542.471L109.188,544.471L107.188,544.471L107.188,542.471L109.188,542.471L109.188,540.471L107.188,540.471L107.188,538.471L109.188,538.471L109.188,540.471ZM127.188,540.471L127.188,542.471L125.188,542.471L125.188,540.471L127.188,540.471ZM125.188,538.471L125.188,540.471L123.188,540.471L123.188,538.471L125.188,538.471ZM129.188,538.471L129.188,540.471L127.188,540.471L127.188,538.471L129.188,538.471ZM125.188,530.471L125.188,528.471L127.188,528.471L127.188,530.471L125.188,530.471L125.188,532.471L123.188,532.471L123.188,534.471L125.188,534.471L125.188,536.471L127.188,536.471L127.188,538.471L125.188,538.471L125.188,536.471L123.188,536.471L123.188,534.471L121.188,534.471L121.188,536.471L119.188,536.471L119.188,534.471L121.188,534.471L121.188,532.471L119.188,532.471L119.188,534.471L117.188,534.471L117.188,532.471L119.188,532.471L119.188,530.471L121.188,530.471L121.188,532.471L123.188,532.471L123.188,530.471L125.188,530.471ZM109.188,538.471L109.188,536.471L111.188,536.471L111.188,538.471L109.188,538.471ZM115.188,534.471L117.188,534.471L117.188,536.471L115.188,536.471L115.188,534.471ZM113.188,534.471L111.188,534.471L111.188,536.471L113.188,536.471L113.188,534.471ZM107.188,536.471L107.188,534.471L109.188,534.471L109.188,536.471L107.188,536.471ZM127.188,532.471L127.188,530.471L129.188,530.471L129.188,532.471L127.188,532.471L127.188,534.471L129.188,534.471L129.188,536.471L127.188,536.471L127.188,534.471L125.188,534.471L125.188,532.471L127.188,532.471ZM113.188,532.471L115.188,532.471L115.188,534.471L113.188,534.471L113.188,532.471ZM111.188,532.471L109.188,532.471L109.188,534.471L111.188,534.471L111.188,532.471ZM111.188,530.471L113.188,530.471L113.188,532.471L111.188,532.471L111.188,530.471ZM107.188,530.471L107.188,532.471L109.188,532.471L109.188,530.471L107.188,530.471ZM115.188,530.471L117.188,530.471L117.188,532.471L115.188,532.471L115.188,530.471ZM109.188,528.471L109.188,530.471L111.188,530.471L111.188,528.471L109.188,528.471ZM125.188,528.471L125.188,526.471L123.188,526.471L123.188,528.471L125.188,528.471ZM129.188,528.471L129.188,526.471L127.188,526.471L127.188,528.471L129.188,528.471ZM109.188,524.471L109.188,526.471L107.188,526.471L107.188,528.471L109.188,528.471L109.188,526.471L111.188,526.471L111.188,528.471L113.188,528.471L113.188,526.471L111.188,526.471L111.188,524.471L113.188,524.471L113.188,522.471L111.188,522.471L111.188,524.471L109.188,524.471L109.188,522.471L107.188,522.471L107.188,524.471L109.188,524.471ZM127.188,526.471L127.188,524.471L125.188,524.471L125.188,526.471L127.188,526.471ZM125.188,512.471L125.188,514.471L123.188,514.471L123.188,516.471L121.188,516.471L121.188,518.471L123.188,518.471L123.188,520.471L125.188,520.471L125.188,522.471L123.188,522.471L123.188,524.471L125.188,524.471L125.188,522.471L127.188,522.471L127.188,524.471L129.188,524.471L129.188,522.471L127.188,522.471L127.188,520.471L129.188,520.471L129.188,518.471L127.188,518.471L127.188,520.471L125.188,520.471L125.188,518.471L123.188,518.471L123.188,516.471L125.188,516.471L125.188,518.471L127.188,518.471L127.188,516.471L125.188,516.471L125.188,514.471L127.188,514.471L127.188,516.471L129.188,516.471L129.188,514.471L127.188,514.471L127.188,512.471L125.188,512.471ZM109.188,520.471L109.188,522.471L111.188,522.471L111.188,520.471L109.188,520.471ZM111.188,518.471L111.188,520.471L113.188,520.471L113.188,518.471L111.188,518.471ZM107.188,518.471L107.188,520.471L109.188,520.471L109.188,518.471L107.188,518.471ZM109.188,516.471L109.188,518.471L111.188,518.471L111.188,516.471L109.188,516.471ZM113.188,512.471L113.188,514.471L111.188,514.471L111.188,516.471L113.188,516.471L113.188,514.471L115.188,514.471L115.188,516.471L113.188,516.471L113.188,518.471L115.188,518.471L115.188,516.471L117.188,516.471L117.188,518.471L119.188,518.471L119.188,516.471L117.188,516.471L117.188,514.471L119.188,514.471L119.188,512.471L117.188,512.471L117.188,514.471L115.188,514.471L115.188,512.471L113.188,512.471ZM107.188,514.471L107.188,516.471L109.188,516.471L109.188,514.471L107.188,514.471ZM121.188,514.471L119.188,514.471L119.188,516.471L121.188,516.471L121.188,514.471ZM111.188,512.471L109.188,512.471L109.188,514.471L111.188,514.471L111.188,512.471ZM123.188,512.471L121.188,512.471L121.188,514.471L123.188,514.471L123.188,512.471Z"/>
                </g>
                <g transform="matrix(1.54545,0,0,0.809524,-165.654,-12.8572)">
                    <path d="M129.188,534.471L127.188,534.471L127.188,536.471L125.188,536.471L125.188,538.471L123.188,538.471L123.188,548.471L125.188,548.471L125.188,550.471L127.188,550.471L127.188,552.471L129.188,552.471L129.188,534.471ZM129.188,514.471L127.188,514.471L127.188,516.471L125.188,516.471L125.188,518.471L123.188,518.471L123.188,528.471L125.188,528.471L125.188,530.471L127.188,530.471L127.188,532.471L129.188,532.471L129.188,514.471Z"/>
                </g>
            </g>
        </g>
    </g>
</svg>
