<?xml version="1.0" encoding="UTF-8" standalone="no"?>
<!DOCTYPE svg PUBLIC "-//W3C//DTD SVG 1.1//EN" "http://www.w3.org/Graphics/SVG/1.1/DTD/svg11.dtd">
<svg width="100%" height="100%" viewBox="0 0 340 340" version="1.1" xmlns="http://www.w3.org/2000/svg" xmlns:xlink="http://www.w3.org/1999/xlink" xml:space="preserve" xmlns:serif="http://www.serif.com/" style="fill-rule:evenodd;clip-rule:evenodd;stroke-linejoin:round;stroke-miterlimit:2;">
    <g transform="matrix(1,0,0,1,-362.623,-712.46)">
        <g transform="matrix(0.482249,0,0,0.482249,156.012,605.341)">
            <rect id="Artboard1" x="428.432" y="222.124" width="705.03" height="705.03" style="fill:none;"/>
            <g id="Artboard11" serif:id="Artboard1">
                <g transform="matrix(2.07362,0,0,2.07362,-302.772,-1255.25)">
                    <path d="M432.623,852.46L432.623,812.46L452.623,812.46L452.623,772.46L512.623,772.46L512.623,812.46L492.623,812.46L492.623,852.46L532.623,852.46L532.623,772.46L592.623,772.46L592.623,852.46L612.623,852.46L612.623,892.46L592.623,892.46L592.623,972.46L532.623,972.46L532.623,892.46L412.623,892.46L412.623,852.46L432.623,852.46Z" style="fill:rgb(2,0,126);"/>
                </g>
            </g>
        </g>
    </g>
</svg>
