<?xml version="1.0" encoding="UTF-8" standalone="no"?>
<!DOCTYPE svg PUBLIC "-//W3C//DTD SVG 1.1//EN" "http://www.w3.org/Graphics/SVG/1.1/DTD/svg11.dtd">
<svg width="100%" height="100%" viewBox="0 0 340 340" version="1.1" xmlns="http://www.w3.org/2000/svg" xmlns:xlink="http://www.w3.org/1999/xlink" xml:space="preserve" xmlns:serif="http://www.serif.com/" style="fill-rule:evenodd;clip-rule:evenodd;stroke-linejoin:round;stroke-miterlimit:2;">
    <g transform="matrix(1,0,0,1,-365.266,-1421.75)">
        <g transform="matrix(0.482249,0,0,0.482249,158.655,1314.63)">
            <rect id="Artboard1" x="428.432" y="222.124" width="705.03" height="705.03" style="fill:none;"/>
            <g id="Artboard11" serif:id="Artboard1">
                <g transform="matrix(2.07362,0,0,2.07362,-328.99,-2726.05)">
                    <path d="M605.266,1561.75L605.266,1581.75L625.266,1581.75L625.266,1661.75L605.266,1661.75L605.266,1681.75L445.266,1681.75L445.266,1661.75L425.266,1661.75L425.266,1581.75L445.266,1581.75L445.266,1561.75L425.266,1561.75L425.266,1501.75L445.266,1501.75L445.266,1481.75L605.266,1481.75L605.266,1501.75L625.266,1501.75L625.266,1561.75L605.266,1561.75ZM565.266,1521.75L485.266,1521.75L485.266,1561.75L565.266,1561.75L565.266,1521.75ZM485.266,1641.75L565.266,1641.75L565.266,1601.75L485.266,1601.75L485.266,1641.75Z" style="fill:rgb(128,128,128);"/>
                </g>
            </g>
        </g>
    </g>
</svg>
