<?xml version="1.0" encoding="UTF-8" standalone="no"?>
<!DOCTYPE svg PUBLIC "-//W3C//DTD SVG 1.1//EN" "http://www.w3.org/Graphics/SVG/1.1/DTD/svg11.dtd">
<svg width="100%" height="100%" viewBox="0 0 340 340" version="1.1" xmlns="http://www.w3.org/2000/svg" xmlns:xlink="http://www.w3.org/1999/xlink" xml:space="preserve" xmlns:serif="http://www.serif.com/" style="fill-rule:evenodd;clip-rule:evenodd;stroke-linejoin:round;stroke-miterlimit:2;">
    <g transform="matrix(1,0,0,1,-1537.35,0)">
        <g transform="matrix(0.482249,0,0,0.482249,1330.74,-107.119)">
            <rect id="Artboard1" x="428.432" y="222.124" width="705.03" height="705.03" style="fill:none;"/>
            <g id="Artboard11" serif:id="Artboard1">
                <g transform="matrix(2.07362,0,0,2.07362,-2800.92,222.124)">
                    <rect x="1697.35" y="160" width="60" height="40" style="fill:rgb(1,126,0);"/>
                </g>
                <g transform="matrix(2.07362,0,0,2.07362,-2759.45,222.124)">
                    <path d="M1637.35,80L1637.35,60L1777.35,60L1777.35,80L1797.35,80L1797.35,160L1777.35,160L1777.35,180L1737.35,180L1737.35,200L1677.35,200L1677.35,180L1717.35,180L1717.35,140L1737.35,140L1737.35,100L1677.35,100L1677.35,120L1617.35,120L1617.35,80L1637.35,80ZM1737.35,220L1737.35,260L1677.35,260L1677.35,220L1737.35,220Z" style="fill:rgb(1,126,0);"/>
                </g>
            </g>
        </g>
    </g>
</svg>
