<?xml version="1.0" encoding="UTF-8" standalone="no"?>
<!DOCTYPE svg PUBLIC "-//W3C//DTD SVG 1.1//EN" "http://www.w3.org/Graphics/SVG/1.1/DTD/svg11.dtd">
<svg width="100%" height="100%" viewBox="0 0 47 47" version="1.1" xmlns="http://www.w3.org/2000/svg" xmlns:xlink="http://www.w3.org/1999/xlink" xml:space="preserve" xmlns:serif="http://www.serif.com/" style="fill-rule:evenodd;clip-rule:evenodd;stroke-linejoin:round;stroke-miterlimit:2;">
    <g transform="matrix(1,0,0,1,-31703,-6577)">
        <g id="instagram-logo.svg" serif:id="instagram logo.svg" transform="matrix(0.0431135,0,0,0.0431135,31726.3,6600.28)">
            <g transform="matrix(1,0,0,1,-540,-540)">
                <clipPath id="_clip1">
                    <rect x="0" y="0" width="1080" height="1080"/>
                </clipPath>
                <g clip-path="url(#_clip1)">
                    <g transform="matrix(1.69843,0,0,1.69843,5303.96,-29865.1)">
                        <g id="Artboard14">
                            <rect x="-3122.86" y="17584" width="635.882" height="635.882" style="fill:none;"/>
                            <g transform="matrix(0.959644,0,0,0.959644,-4359.55,722.447)">
                                <path d="M1951.31,17767.1C1951.31,17715 1930.61,17665 1893.76,17628.2C1856.91,17591.3 1806.94,17570.6 1754.83,17570.6L1485.17,17570.6C1433.06,17570.6 1383.09,17591.3 1346.24,17628.2C1309.39,17665 1288.69,17715 1288.69,17767.1L1288.69,18036.8C1288.69,18088.9 1309.39,18138.9 1346.24,18175.7C1383.09,18212.6 1433.06,18233.3 1485.17,18233.3L1754.83,18233.3C1806.94,18233.3 1856.91,18212.6 1893.76,18175.7C1930.61,18138.9 1951.31,18088.9 1951.31,18036.8L1951.31,17767.1ZM1896.45,17767.1L1896.45,18036.8C1896.45,18074.3 1881.53,18110.4 1854.97,18136.9C1828.41,18163.5 1792.39,18178.4 1754.83,18178.4L1485.17,18178.4C1447.61,18178.4 1411.59,18163.5 1385.03,18136.9C1358.47,18110.4 1343.55,18074.3 1343.55,18036.8L1343.55,17767.1C1343.55,17729.6 1358.47,17693.5 1385.03,17667C1411.59,17640.4 1447.61,17625.5 1485.17,17625.5L1754.83,17625.5C1792.39,17625.5 1828.41,17640.4 1854.97,17667C1881.53,17693.5 1896.45,17729.6 1896.45,17767.1ZM1620,17726.4C1523.13,17726.4 1444.48,17805.1 1444.48,17901.9C1444.48,17998.8 1523.13,18077.5 1620,18077.5C1716.87,18077.5 1795.52,17998.8 1795.52,17901.9C1795.52,17805.1 1716.87,17726.4 1620,17726.4ZM1620,17781.3C1686.6,17781.3 1740.66,17835.3 1740.66,17901.9C1740.66,17968.5 1686.6,18022.6 1620,18022.6C1553.4,18022.6 1499.34,17968.5 1499.34,17901.9C1499.34,17835.3 1553.4,17781.3 1620,17781.3ZM1798.6,17682.2C1819.71,17682.2 1836.85,17699.4 1836.85,17720.5C1836.85,17741.6 1819.71,17758.7 1798.6,17758.7C1777.49,17758.7 1760.35,17741.6 1760.35,17720.5C1760.35,17699.4 1777.49,17682.2 1798.6,17682.2Z" style="fill:url(#_Radial2);"/>
                            </g>
                        </g>
                    </g>
                </g>
            </g>
            <g>
            </g>
        </g>
    </g>
    <defs>
        <radialGradient id="_Radial2" cx="0" cy="0" r="1" gradientUnits="userSpaceOnUse" gradientTransform="matrix(827.036,-612.297,331.14,447.273,1489.19,18250.4)"><stop offset="0" style="stop-color:rgb(255,198,0);stop-opacity:1"/><stop offset="0.19" style="stop-color:rgb(255,165,0);stop-opacity:1"/><stop offset="0.39" style="stop-color:rgb(255,69,1);stop-opacity:1"/><stop offset="0.8" style="stop-color:rgb(255,0,209);stop-opacity:1"/><stop offset="1" style="stop-color:rgb(131,9,254);stop-opacity:1"/></radialGradient>
    </defs>
</svg>
