<?xml version="1.0" encoding="UTF-8" standalone="no"?>
<!DOCTYPE svg PUBLIC "-//W3C//DTD SVG 1.1//EN" "http://www.w3.org/Graphics/SVG/1.1/DTD/svg11.dtd">
<svg width="100%" height="100%" viewBox="0 0 500 500" version="1.1" xmlns="http://www.w3.org/2000/svg" xmlns:xlink="http://www.w3.org/1999/xlink" xml:space="preserve" xmlns:serif="http://www.serif.com/" style="fill-rule:evenodd;clip-rule:evenodd;stroke-linejoin:round;stroke-miterlimit:2;">
    <g transform="matrix(1,0,0,1,-2499.29,-6.17504)">
        <g transform="matrix(0.925926,0,0,0.925926,183.986,6.17504)">
            <rect id="Artboard2" x="2500.53" y="0" width="540" height="540" style="fill:none;"/>
            <clipPath id="_clip1">
                <rect id="Artboard21" serif:id="Artboard2" x="2500.53" y="0" width="540" height="540"/>
            </clipPath>
            <g clip-path="url(#_clip1)">
                <g transform="matrix(1.08,0,0,1.08,-220.304,-6.66905)">
                    <path d="M2779.29,26.175L2799.29,26.175L2799.29,66.175L2819.29,66.175L2819.29,86.175L2839.29,86.175L2839.29,106.175L2879.29,106.175L2879.29,86.175L2899.29,86.175L2899.29,66.175L2919.29,66.175L2919.29,86.175L2939.29,86.175L2939.29,106.175L2959.29,106.175L2959.29,126.175L2939.29,126.175L2939.29,146.175L2919.29,146.175L2919.29,166.175L2939.29,166.175L2939.29,206.175L2959.29,206.175L2959.29,226.175L2999.29,226.175L2999.29,246.175L3019.29,246.175L3019.29,286.175L2999.29,286.175L2999.29,306.175L2959.29,306.175L2959.29,326.175L2939.29,326.175L2939.29,346.175L2919.29,346.175L2919.29,386.175L2959.29,386.175L2959.29,426.175L2939.29,426.175L2939.29,446.175L2919.29,446.175L2919.29,466.175L2899.29,466.175L2899.29,446.175L2879.29,446.175L2879.29,426.175L2839.29,426.175L2839.29,446.175L2819.29,446.175L2819.29,486.175L2799.29,486.175L2799.29,506.175L2759.29,506.175L2759.29,486.175L2739.29,486.175L2739.29,466.175L2679.29,466.175L2679.29,446.175L2659.29,446.175L2659.29,426.175L2639.29,426.175L2639.29,466.175L2599.29,466.175L2599.29,446.175L2579.29,446.175L2579.29,426.175L2559.29,426.175L2559.29,386.175L2599.29,386.175L2599.29,366.175L2579.29,366.175L2579.29,346.175L2559.29,346.175L2559.29,306.175L2539.29,306.175L2539.29,286.175L2519.29,286.175L2519.29,246.175L2539.29,246.175L2539.29,226.175L2579.29,226.175L2579.29,166.175L2599.29,166.175L2599.29,146.175L2579.29,146.175L2579.29,126.175L2559.29,126.175L2559.29,106.175L2579.29,106.175L2579.29,86.175L2599.29,86.175L2599.29,66.175L2639.29,66.175L2639.29,106.175L2679.29,106.175L2679.29,86.175L2699.29,86.175L2699.29,66.175L2719.29,66.175L2719.29,26.175L2739.29,26.175L2739.29,6.175L2779.29,6.175L2779.29,26.175Z"/>
                </g>
                <g transform="matrix(1.08,0,0,1.08,-220.304,-6.66905)">
                    <path d="M2879.29,126.175L2879.29,146.175L2859.29,146.175L2859.29,226.175L2839.29,226.175L2839.29,246.175L2799.29,246.175L2799.29,226.175L2779.29,226.175L2779.29,206.175L2759.29,206.175L2759.29,266.175L2699.29,266.175L2699.29,286.175L2719.29,286.175L2719.29,306.175L2699.29,306.175L2699.29,326.175L2679.29,326.175L2679.29,306.175L2659.29,306.175L2659.29,326.175L2619.29,326.175L2619.29,306.175L2599.29,306.175L2599.29,286.175L2539.29,286.175L2539.29,266.175L2519.29,266.175L2519.29,246.175L2539.29,246.175L2539.29,226.175L2579.29,226.175L2579.29,186.175L2599.29,186.175L2599.29,146.175L2579.29,146.175L2579.29,86.175L2599.29,86.175L2599.29,66.175L2619.29,66.175L2619.29,86.175L2639.29,86.175L2639.29,106.175L2679.29,106.175L2679.29,86.175L2699.29,86.175L2699.29,66.175L2719.29,66.175L2719.29,26.175L2739.29,26.175L2739.29,6.175L2779.29,6.175L2779.29,66.175L2799.29,66.175L2799.29,86.175L2819.29,86.175L2819.29,106.175L2839.29,106.175L2839.29,126.175L2879.29,126.175ZM2879.29,126.175L2879.29,106.175L2899.29,106.175L2899.29,126.175L2879.29,126.175ZM2899.29,106.175L2899.29,86.175L2919.29,86.175L2919.29,106.175L2899.29,106.175ZM2599.29,386.175L2619.29,386.175L2619.29,426.175L2579.29,426.175L2579.29,406.175L2599.29,406.175L2599.29,386.175ZM2759.29,486.175L2759.29,466.175L2779.29,466.175L2779.29,486.175L2759.29,486.175Z" style="fill:rgb(128,128,128);"/>
                </g>
                <g transform="matrix(1.08,0,0,1.08,-220.304,-6.66905)">
                    <path d="M2579.29,246.175L2579.29,226.175L2599.29,226.175L2599.29,186.175L2619.29,186.175L2619.29,146.175L2639.29,146.175L2639.29,126.175L2619.29,126.175L2619.29,106.175L2599.29,106.175L2599.29,86.175L2639.29,86.175L2639.29,106.175L2699.29,106.175L2699.29,86.175L2739.29,86.175L2739.29,26.175L2759.29,26.175L2759.29,106.175L2779.29,106.175L2779.29,126.175L2739.29,126.175L2739.29,146.175L2699.29,146.175L2699.29,166.175L2679.29,166.175L2679.29,146.175L2659.29,146.175L2659.29,166.175L2679.29,166.175L2679.29,186.175L2659.29,186.175L2659.29,206.175L2639.29,206.175L2639.29,226.175L2619.29,226.175L2619.29,246.175L2579.29,246.175ZM2579.29,246.175L2579.29,266.175L2539.29,266.175L2539.29,246.175L2579.29,246.175Z" style="fill:rgb(192,192,192);"/>
                </g>
                <g transform="matrix(1.08,0,0,1.08,-220.304,-6.66905)">
                    <path d="M2719.29,206.175L2759.29,206.175L2759.29,226.175L2719.29,226.175L2719.29,246.175L2699.29,246.175L2699.29,226.175L2719.29,226.175" style="fill:rgb(192,192,192);"/>
                </g>
                <g transform="matrix(1.08,0,0,1.08,-220.304,-6.66905)">
                    <path d="M2739.29,6.175L2779.29,6.175" style="fill:none;"/>
                </g>
            </g>
        </g>
    </g>
</svg>
