<?xml version="1.0" encoding="UTF-8" standalone="no"?>
<!DOCTYPE svg PUBLIC "-//W3C//DTD SVG 1.1//EN" "http://www.w3.org/Graphics/SVG/1.1/DTD/svg11.dtd">
<svg width="100%" height="100%" viewBox="0 0 14 18" version="1.1" xmlns="http://www.w3.org/2000/svg" xmlns:xlink="http://www.w3.org/1999/xlink" xml:space="preserve" xmlns:serif="http://www.serif.com/" style="fill-rule:evenodd;clip-rule:evenodd;stroke-linejoin:round;stroke-miterlimit:2;">
    <g transform="matrix(1,0,0,1,-68.6567,-312)">
        <g id="Artboard16" transform="matrix(1.16667,0,0,1,90.1958,-0.305251)">
            <rect x="-18.462" y="312.305" width="12" height="18" style="fill:none;"/>
            <clipPath id="_clip1">
                <rect x="-18.462" y="312.305" width="12" height="18"/>
            </clipPath>
            <g clip-path="url(#_clip1)">
                <g transform="matrix(0.857143,0,0,1,-311.605,-33.6947)">
                    <path d="M350,354L350,348L346,348L346,350L342,350L342,348L344,348L344,346L352,346L352,348L354,348L354,354L352,354L352,356L354,356L354,362L352,362L352,364L344,364L344,362L342,362L342,360L346,360L346,362L350,362L350,356L346,356L346,354L350,354Z"/>
                </g>
            </g>
        </g>
    </g>
</svg>
