<?xml version="1.0" encoding="UTF-8" standalone="no"?>
<!DOCTYPE svg PUBLIC "-//W3C//DTD SVG 1.1//EN" "http://www.w3.org/Graphics/SVG/1.1/DTD/svg11.dtd">
<svg width="100%" height="100%" viewBox="0 0 14 18" version="1.1" xmlns="http://www.w3.org/2000/svg" xmlns:xlink="http://www.w3.org/1999/xlink" xml:space="preserve" xmlns:serif="http://www.serif.com/" style="fill-rule:evenodd;clip-rule:evenodd;stroke-linejoin:round;stroke-miterlimit:2;">
    <g transform="matrix(1,0,0,1,-68.6567,-312)">
        <g id="Artboard16" transform="matrix(1.16667,0,0,1,90.1958,-0.305251)">
            <rect x="-18.462" y="312.305" width="12" height="18" style="fill:none;"/>
            <g transform="matrix(0.857143,0,0,1,-363.034,-33.6947)">
                <path d="M410,354L412,354L412,350L414,350L414,346L402,346L402,348L410,348L410,350L408,350L408,354L406,354L406,358L404,358L404,364L408,364L408,358L410,358L410,354Z"/>
            </g>
        </g>
    </g>
</svg>
