<?xml version="1.0" encoding="UTF-8" standalone="no"?>
<!DOCTYPE svg PUBLIC "-//W3C//DTD SVG 1.1//EN" "http://www.w3.org/Graphics/SVG/1.1/DTD/svg11.dtd">
<svg width="100%" height="100%" viewBox="0 0 16 18" version="1.1" xmlns="http://www.w3.org/2000/svg" xmlns:xlink="http://www.w3.org/1999/xlink" xml:space="preserve" xmlns:serif="http://www.serif.com/" style="fill-rule:evenodd;clip-rule:evenodd;stroke-linejoin:round;stroke-miterlimit:2;">
    <g transform="matrix(1,0,0,1,-101.657,-333.617)">
        <g id="Artboard12" transform="matrix(1.27805,0,0,1.07882,15.8341,27.2318)">
            <rect x="67.151" y="284" width="12.519" height="16.685" style="fill:none;"/>
            <clipPath id="_clip1">
                <rect x="67.151" y="284" width="12.519" height="16.685"/>
            </clipPath>
            <g clip-path="url(#_clip1)">
                <g transform="matrix(0.782442,0,0,0.926937,-87.7723,18.896)">
                    <path d="M202,288L202,286L198,286L198,304L202,304L202,296L204,296L204,298L206,298L206,302L208,302L208,304L212,304L212,286L208,286L208,296L206,296L206,292L204,292L204,288L202,288Z"/>
                </g>
            </g>
        </g>
    </g>
</svg>
