<?xml version="1.0" encoding="UTF-8" standalone="no"?>
<!DOCTYPE svg PUBLIC "-//W3C//DTD SVG 1.1//EN" "http://www.w3.org/Graphics/SVG/1.1/DTD/svg11.dtd">
<svg width="100%" height="100%" viewBox="0 0 47 47" version="1.1" xmlns="http://www.w3.org/2000/svg" xmlns:xlink="http://www.w3.org/1999/xlink" xml:space="preserve" xmlns:serif="http://www.serif.com/" style="fill-rule:evenodd;clip-rule:evenodd;stroke-linejoin:round;stroke-miterlimit:2;">
    <g transform="matrix(1,0,0,1,-31703,-6682)">
        <g id="Artboard6" transform="matrix(0.995205,0,0,0.995205,152.029,31.1555)">
            <rect x="31703" y="6682.89" width="46.825" height="46.825" style="fill:none;"/>
            <clipPath id="_clip1">
                <rect x="31703" y="6682.89" width="46.825" height="46.825"/>
            </clipPath>
            <g clip-path="url(#_clip1)">
                <g transform="matrix(0.0433163,0,0,0.0433163,31703,5884.06)">
                    <path d="M459.188,19515.9C199.448,19476.9 0,19252.5 0,18981.9C0,18683.9 241.966,18441.9 540,18441.9C838.034,18441.9 1080,18683.9 1080,18981.9C1080,19251.2 882.437,19474.8 624.491,19515.4L624.491,19141.8L757.72,19141.8L782.512,18976.4L624.491,18976.4L624.491,18874.8C624.491,18833.9 657.618,18800.8 698.483,18800.8L778.807,18800.8L778.807,18671.6C778.807,18671.6 741.027,18660.9 687.24,18651.4C631.786,18641.7 570.368,18660.1 527.234,18696.3C484.099,18732.5 459.188,18785.9 459.188,18842.2L459.188,18976.4L316.258,18976.4L316.258,19141.8L459.188,19141.8L459.188,19515.9Z" style="fill:rgb(215,207,200);"/>
                </g>
            </g>
        </g>
    </g>
</svg>
