<?xml version="1.0" encoding="UTF-8" standalone="no"?>
<!DOCTYPE svg PUBLIC "-//W3C//DTD SVG 1.1//EN" "http://www.w3.org/Graphics/SVG/1.1/DTD/svg11.dtd">
<svg width="100%" height="100%" viewBox="0 0 47 47" version="1.1" xmlns="http://www.w3.org/2000/svg" xmlns:xlink="http://www.w3.org/1999/xlink" xml:space="preserve" xmlns:serif="http://www.serif.com/" style="fill-rule:evenodd;clip-rule:evenodd;stroke-linejoin:round;stroke-miterlimit:2;">
    <g transform="matrix(1,0,0,1,-31703,-6788)">
        <g id="Artboard7" transform="matrix(0.995205,0,0,0.995205,152.029,32.2608)">
            <rect x="31703" y="6788.29" width="46.825" height="46.825" style="fill:none;"/>
            <clipPath id="_clip1">
                <rect x="31703" y="6788.29" width="46.825" height="46.825"/>
            </clipPath>
            <g clip-path="url(#_clip1)">
                <g transform="matrix(0.0433162,0,0,0.0433162,30691,6561.61)">
                    <path d="M24444.4,5310.73C24444.4,5290.11 24436.3,5270.44 24421.7,5255.98C24407.2,5241.4 24387.5,5233.22 24367,5233.22L23441.9,5233.22C23421.3,5233.22 23401.6,5241.4 23387.1,5255.98C23372.6,5270.44 23364.4,5290.11 23364.4,5310.73L23364.4,6234.09C23364.4,6254.6 23372.6,6274.27 23387.1,6288.85C23401.6,6303.31 23421.3,6311.48 23441.9,6311.48L24367,6311.48C24387.5,6311.48 24407.2,6303.31 24421.7,6288.85C24436.3,6274.27 24444.4,6254.6 24444.4,6234.09L24444.4,5310.73ZM23684.8,5635.47L23522.3,5635.47L23522.3,6155.47L23684.8,6155.47L23684.8,5635.47ZM23946.1,5698.17L23946.1,5635.47L23783.6,5635.47L23783.6,6155.47L23946.1,6155.47L23946.1,5918.47C23946.1,5801.67 23975.3,5763.77 24038.8,5763.77C24113.1,5763.77 24122.8,5828.57 24122.9,5860.97L24122.9,5861.67L24122.9,6155.47L24285.4,6155.47L24285.4,5861.67C24285.4,5734.87 24254.5,5613.27 24077,5624.67C24002.5,5629.47 23964.7,5666.97 23946.1,5698.17ZM23603.6,5374.47C23656.8,5374.47 23699.9,5417.67 23699.9,5470.87C23699.9,5523.97 23656.8,5567.17 23603.6,5567.17C23550.4,5567.17 23507.3,5523.97 23507.3,5470.87C23507.3,5417.67 23550.4,5374.47 23603.6,5374.47Z" style="fill:rgb(215,207,200);"/>
                </g>
            </g>
        </g>
    </g>
</svg>
