<?xml version="1.0" encoding="UTF-8" standalone="no"?>
<!DOCTYPE svg PUBLIC "-//W3C//DTD SVG 1.1//EN" "http://www.w3.org/Graphics/SVG/1.1/DTD/svg11.dtd">
<svg width="100%" height="100%" viewBox="0 0 340 340" version="1.1" xmlns="http://www.w3.org/2000/svg" xmlns:xlink="http://www.w3.org/1999/xlink" xml:space="preserve" xmlns:serif="http://www.serif.com/" style="fill-rule:evenodd;clip-rule:evenodd;stroke-linejoin:round;stroke-miterlimit:2;">
    <g transform="matrix(0.482249,0,0,0.482249,-206.611,-107.119)">
        <rect id="Artboard1" x="428.432" y="222.124" width="705.03" height="705.03" style="fill:none;"/>
        <g id="Artboard11" serif:id="Artboard1">
            <g transform="matrix(2.07362,0,0,2.07362,469.905,263.596)">
                <path d="M220,220L240,220L240,240L220,240L220,220ZM80,220L80,240L60,240L60,220L80,220ZM80,80L60,80L60,60L80,60L80,80ZM80,220L80,200L60,200L60,160L20,160L20,140L60,140L60,100L80,100L80,80L100,80L100,60L140,60L140,20L160,20L160,60L200,60L200,80L220,80L220,100L240,100L240,140L280,140L280,160L240,160L240,200L220,200L220,220L200,220L200,240L160,240L160,280L140,280L140,240L100,240L100,220L80,220ZM220,80L220,60L240,60L240,80L220,80Z"/>
            </g>
            <g transform="matrix(2.07362,0,0,2.07362,469.905,263.596)">
                <rect x="100" y="100" width="40" height="40" style="fill:white;"/>
            </g>
            <g transform="matrix(2.07362,0,0,2.07362,428.432,263.596)">
                <path d="M140,180L140,140L120,140L120,120L100,120L100,100L80,100L80,80L60,80L60,60L40,60L40,40L80,40L80,60L100,60L100,80L120,80L120,100L140,100L140,120L160,120L160,140L180,140L180,120L200,120L200,100L220,100L220,80L240,80L240,60L260,60L260,40L300,40L300,60L280,60L280,80L260,80L260,100L240,100L240,120L220,120L220,140L200,140L200,180L220,180L220,200L240,200L240,220L260,220L260,240L280,240L280,260L300,260L300,280L260,280L260,260L240,260L240,240L220,240L220,220L200,220L200,200L180,200L180,180L160,180L160,200L140,200L140,220L120,220L120,240L100,240L100,260L80,260L80,280L40,280L40,260L60,260L60,240L80,240L80,220L100,220L100,200L120,200L120,180L140,180Z" style="fill:rgb(254,0,1);"/>
            </g>
        </g>
    </g>
</svg>
