<?xml version="1.0" encoding="UTF-8" standalone="no"?>
<!DOCTYPE svg PUBLIC "-//W3C//DTD SVG 1.1//EN" "http://www.w3.org/Graphics/SVG/1.1/DTD/svg11.dtd">
<svg width="100%" height="100%" viewBox="0 0 340 340" version="1.1" xmlns="http://www.w3.org/2000/svg" xmlns:xlink="http://www.w3.org/1999/xlink" xml:space="preserve" xmlns:serif="http://www.serif.com/" style="fill-rule:evenodd;clip-rule:evenodd;stroke-linejoin:round;stroke-miterlimit:2;">
    <g transform="matrix(1,0,0,1,-357.126,-360.033)">
        <g transform="matrix(0.482249,0,0,0.482249,150.515,252.914)">
            <rect id="Artboard1" x="428.432" y="222.124" width="705.03" height="705.03" style="fill:none;"/>
            <g id="Artboard11" serif:id="Artboard1">
                <g transform="matrix(2.07362,0,0,2.07362,-291.374,-524.447)">
                    <path d="M427.126,440.033L427.126,420.033L587.126,420.033L587.126,440.033L607.126,440.033L607.126,500.033L587.126,500.033L587.126,520.033L567.126,520.033L567.126,540.033L527.126,540.033L527.126,560.033L487.126,560.033L487.126,580.033L607.126,580.033L607.126,620.033L407.126,620.033L407.126,560.033L427.126,560.033L427.126,540.033L467.126,540.033L467.126,520.033L507.126,520.033L507.126,500.033L547.126,500.033L547.126,460.033L467.126,460.033L467.126,480.033L407.126,480.033L407.126,440.033L427.126,440.033Z" style="fill:rgb(1,126,0);"/>
                </g>
            </g>
        </g>
    </g>
</svg>
