<?xml version="1.0" encoding="UTF-8" standalone="no"?>
<!DOCTYPE svg PUBLIC "-//W3C//DTD SVG 1.1//EN" "http://www.w3.org/Graphics/SVG/1.1/DTD/svg11.dtd">
<svg width="100%" height="100%" viewBox="0 0 340 340" version="1.1" xmlns="http://www.w3.org/2000/svg" xmlns:xlink="http://www.w3.org/1999/xlink" xml:space="preserve" xmlns:serif="http://www.serif.com/" style="fill-rule:evenodd;clip-rule:evenodd;stroke-linejoin:round;stroke-miterlimit:2;">
    <g transform="matrix(1,0,0,1,-362.16,-1067.19)">
        <g transform="matrix(0.482249,0,0,0.482249,155.549,960.072)">
            <rect id="Artboard1" x="428.432" y="222.124" width="705.03" height="705.03" style="fill:none;"/>
            <g id="Artboard11" serif:id="Artboard1">
                <g transform="matrix(2.07362,0,0,2.07362,-301.813,-1990.82)">
                    <path d="M432.16,1147.19L432.16,1127.19L592.16,1127.19L592.16,1167.19L472.16,1167.19L472.16,1207.19L592.16,1207.19L592.16,1227.19L612.16,1227.19L612.16,1307.19L592.16,1307.19L592.16,1327.19L432.16,1327.19L432.16,1307.19L412.16,1307.19L412.16,1147.19L432.16,1147.19ZM472.16,1287.19L552.16,1287.19L552.16,1247.19L472.16,1247.19L472.16,1287.19Z" style="fill:rgb(0,129,126);"/>
                </g>
            </g>
        </g>
    </g>
</svg>
