<?xml version="1.0" encoding="UTF-8" standalone="no"?>
<!DOCTYPE svg PUBLIC "-//W3C//DTD SVG 1.1//EN" "http://www.w3.org/Graphics/SVG/1.1/DTD/svg11.dtd">
<svg width="100%" height="100%" viewBox="0 0 14 18" version="1.1" xmlns="http://www.w3.org/2000/svg" xmlns:xlink="http://www.w3.org/1999/xlink" xml:space="preserve" xmlns:serif="http://www.serif.com/" style="fill-rule:evenodd;clip-rule:evenodd;stroke-linejoin:round;stroke-miterlimit:2;">
    <g transform="matrix(1,0,0,1,-68.6567,-312)">
        <g id="Artboard16" transform="matrix(1.16667,0,0,1,90.1958,-0.305251)">
            <rect x="-18.462" y="312.305" width="12" height="18" style="fill:none;"/>
            <clipPath id="_clip1">
                <rect x="-18.462" y="312.305" width="12" height="18"/>
            </clipPath>
            <g clip-path="url(#_clip1)">
                <g transform="matrix(0.857143,0,0,1,-299.605,-33.6947)">
                    <path d="M332,360L334,360L334,358L336,358L336,356L338,356L338,354L340,354L340,348L338,348L338,346L330,346L330,348L328,348L328,350L332,350L332,348L336,348L336,354L334,354L334,356L332,356L332,358L330,358L330,360L328,360L328,364L340,364L340,362L332,362L332,360Z"/>
                </g>
            </g>
        </g>
    </g>
</svg>
