<?xml version="1.0" encoding="UTF-8" standalone="no"?>
<!DOCTYPE svg PUBLIC "-//W3C//DTD SVG 1.1//EN" "http://www.w3.org/Graphics/SVG/1.1/DTD/svg11.dtd">
<svg width="100%" height="100%" viewBox="0 0 14 18" version="1.1" xmlns="http://www.w3.org/2000/svg" xmlns:xlink="http://www.w3.org/1999/xlink" xml:space="preserve" xmlns:serif="http://www.serif.com/" style="fill-rule:evenodd;clip-rule:evenodd;stroke-linejoin:round;stroke-miterlimit:2;">
    <g transform="matrix(1,0,0,1,-68.6567,-312)">
        <g id="Artboard16" transform="matrix(1.16667,0,0,1,90.1958,-0.305251)">
            <rect x="-18.462" y="312.305" width="12" height="18" style="fill:none;"/>
            <clipPath id="_clip1">
                <rect x="-18.462" y="312.305" width="12" height="18"/>
            </clipPath>
            <g clip-path="url(#_clip1)">
                <g transform="matrix(0.857143,0,0,1,-37.3192,26.3053)">
                    <path d="M22,304L32,304L32,302L34,302L34,296L32,296L32,294L34,294L34,288L32,288L32,286L22,286L22,304ZM26,296L26,302L30,302L30,296L26,296ZM26,288L26,294L30,294L30,288L26,288Z"/>
                </g>
            </g>
        </g>
    </g>
</svg>
