<?xml version="1.0" encoding="UTF-8" standalone="no"?>
<!DOCTYPE svg PUBLIC "-//W3C//DTD SVG 1.1//EN" "http://www.w3.org/Graphics/SVG/1.1/DTD/svg11.dtd">
<svg width="100%" height="100%" viewBox="0 0 16 18" version="1.1" xmlns="http://www.w3.org/2000/svg" xmlns:xlink="http://www.w3.org/1999/xlink" xml:space="preserve" xmlns:serif="http://www.serif.com/" style="fill-rule:evenodd;clip-rule:evenodd;stroke-linejoin:round;stroke-miterlimit:2;">
    <g transform="matrix(1,0,0,1,-101.657,-333.617)">
        <g id="Artboard12" transform="matrix(1.27805,0,0,1.07882,15.8341,27.2318)">
            <rect x="67.151" y="284" width="12.519" height="16.685" style="fill:none;"/>
            <clipPath id="_clip1">
                <rect x="67.151" y="284" width="12.519" height="16.685"/>
            </clipPath>
            <g clip-path="url(#_clip1)">
                <g transform="matrix(0.782442,0,0,0.926937,-125.33,18.896)">
                    <path d="M256,304L256,306L260,306L260,304L258,304L258,302L260,302L260,288L258,288L258,286L248,286L248,288L246,288L246,302L248,302L248,304L256,304ZM256,298L256,288L250,288L250,302L254,302L254,300L252,300L252,298L256,298Z"/>
                </g>
            </g>
        </g>
    </g>
</svg>
