<?xml version="1.0" encoding="UTF-8" standalone="no"?>
<!DOCTYPE svg PUBLIC "-//W3C//DTD SVG 1.1//EN" "http://www.w3.org/Graphics/SVG/1.1/DTD/svg11.dtd">
<svg width="100%" height="100%" viewBox="0 0 14 18" version="1.1" xmlns="http://www.w3.org/2000/svg" xmlns:xlink="http://www.w3.org/1999/xlink" xml:space="preserve" xmlns:serif="http://www.serif.com/" style="fill-rule:evenodd;clip-rule:evenodd;stroke-linejoin:round;stroke-miterlimit:2;">
    <g transform="matrix(1,0,0,1,-68.6567,-312)">
        <g id="Artboard16" transform="matrix(1.16667,0,0,1,90.1958,-0.305251)">
            <rect x="-18.462" y="312.305" width="12" height="18" style="fill:none;"/>
            <clipPath id="_clip1">
                <rect x="-18.462" y="312.305" width="12" height="18"/>
            </clipPath>
            <g clip-path="url(#_clip1)">
                <g transform="matrix(0.857143,0,0,1,-256.748,26.3053)">
                    <path d="M278,294L280,294L280,296L286,296L286,302L282,302L282,300L278,300L278,302L280,302L280,304L288,304L288,302L290,302L290,296L288,296L288,294L282,294L282,288L286,288L286,290L290,290L290,288L288,288L288,286L280,286L280,288L278,288L278,294Z"/>
                </g>
            </g>
        </g>
    </g>
</svg>
