<?xml version="1.0" encoding="UTF-8" standalone="no"?>
<!DOCTYPE svg PUBLIC "-//W3C//DTD SVG 1.1//EN" "http://www.w3.org/Graphics/SVG/1.1/DTD/svg11.dtd">
<svg width="100%" height="100%" viewBox="0 0 26 18" version="1.1" xmlns="http://www.w3.org/2000/svg" xmlns:xlink="http://www.w3.org/1999/xlink" xml:space="preserve" xmlns:serif="http://www.serif.com/" style="fill-rule:evenodd;clip-rule:evenodd;stroke-linejoin:round;stroke-miterlimit:2;">
    <g transform="matrix(1,0,0,1,-13,-346.241)">
        <g id="Artboard17" transform="matrix(1.08333,0,0,1,5.41667,-1.2303)">
            <rect x="7" y="347.471" width="24" height="18" style="fill:none;"/>
            <g transform="matrix(0.923077,0,0,1,-306.846,61.4714)">
                <path d="M350,300L350,304L346,304L346,300L344,300L344,296L342,296L342,290L340,290L340,286L344,286L344,290L346,290L346,296L350,296L350,290L354,290L354,296L358,296L358,290L360,290L360,286L364,286L364,290L362,290L362,296L360,296L360,300L358,300L358,304L354,304L354,300L350,300Z"/>
            </g>
        </g>
    </g>
</svg>
