<?xml version="1.0" encoding="UTF-8" standalone="no"?>
<!DOCTYPE svg PUBLIC "-//W3C//DTD SVG 1.1//EN" "http://www.w3.org/Graphics/SVG/1.1/DTD/svg11.dtd">
<svg width="100%" height="100%" viewBox="0 0 18 18" version="1.1" xmlns="http://www.w3.org/2000/svg" xmlns:xlink="http://www.w3.org/1999/xlink" xml:space="preserve" xmlns:serif="http://www.serif.com/" style="fill-rule:evenodd;clip-rule:evenodd;stroke-linejoin:round;stroke-miterlimit:2;">
    <g transform="matrix(1,0,0,1,-106.574,-301.755)">
        <g id="Artboard13" transform="matrix(1.125,0,0,1,87.542,0.178075)">
            <rect x="16.918" y="301.577" width="16" height="18" style="fill:none;"/>
            <g transform="matrix(0.888889,0,0,1,-340.416,15.5773)">
                <path d="M410,292L410,294L408,294L408,296L406,296L406,298L404,298L404,300L402,300L402,304L418,304L418,302L406,302L406,300L408,300L408,298L410,298L410,296L412,296L412,294L414,294L414,292L416,292L416,290L418,290L418,286L402,286L402,288L414,288L414,290L412,290L412,292L410,292Z"/>
            </g>
        </g>
    </g>
</svg>
