<?xml version="1.0" encoding="UTF-8" standalone="no"?>
<!DOCTYPE svg PUBLIC "-//W3C//DTD SVG 1.1//EN" "http://www.w3.org/Graphics/SVG/1.1/DTD/svg11.dtd">
<svg width="100%" height="100%" viewBox="0 0 540 540" version="1.1" xmlns="http://www.w3.org/2000/svg" xmlns:xlink="http://www.w3.org/1999/xlink" xml:space="preserve" xmlns:serif="http://www.serif.com/" style="fill-rule:evenodd;clip-rule:evenodd;stroke-linejoin:round;stroke-miterlimit:2;">
    <g transform="matrix(1,0,0,1,-1927.07,0)">
        <g transform="matrix(0.765925,0,0,0.765925,1598.92,-170.13)">
            <rect id="Artboard1" x="428.432" y="222.124" width="705.03" height="705.03" style="fill:none;"/>
            <g id="Artboard11" serif:id="Artboard1">
                <g transform="matrix(1.30561,0,0,1.30561,-2009.23,274.349)">
                    <path d="M1987.07,180L1987.07,140L2007.07,140L2007.07,120L2027.07,120L2027.07,100L2047.07,100L2047.07,80L2087.07,80L2087.07,60L2187.07,60L2187.07,80L2227.07,80L2227.07,100L2247.07,100L2247.07,120L2267.07,120L2267.07,140L2287.07,140L2287.07,180L2307.07,180L2307.07,280L2287.07,280L2287.07,320L2267.07,320L2267.07,340L2247.07,340L2247.07,360L2227.07,360L2227.07,380L2187.07,380L2187.07,400L2087.07,400L2087.07,380L2047.07,380L2047.07,360L2027.07,360L2027.07,340L2007.07,340L2007.07,320L1987.07,320L1987.07,280L1967.07,280L1967.07,180L1987.07,180Z"/>
                </g>
                <g transform="matrix(1.30561,0,0,1.30561,-2009.23,274.349)">
                    <path d="M2007.07,180L2007.07,140L2027.07,140L2027.07,120L2047.07,120L2047.07,100L2087.07,100L2087.07,80L2187.07,80L2187.07,100L2227.07,100L2227.07,120L2247.07,120L2247.07,140L2267.07,140L2267.07,180L2287.07,180L2287.07,280L2267.07,280L2267.07,320L2247.07,320L2247.07,340L2227.07,340L2227.07,360L2187.07,360L2187.07,380L2087.07,380L2087.07,360L2047.07,360L2047.07,340L2027.07,340L2027.07,320L2007.07,320L2007.07,280L1987.07,280L1987.07,180L2007.07,180Z" style="fill:rgb(255,255,0);"/>
                </g>
                <g transform="matrix(1.30561,0,0,1.30561,-2009.23,274.349)">
                    <path d="M2067.07,300L2087.07,300L2087.07,320L2067.07,320L2067.07,300ZM2187.07,320L2187.07,300L2207.07,300L2207.07,320L2187.07,320ZM2087.07,320L2187.07,320L2187.07,340L2087.07,340L2087.07,320ZM2107.07,220L2107.07,260L2067.07,260L2067.07,220L2107.07,220ZM2207.07,220L2207.07,260L2167.07,260L2167.07,220L2207.07,220Z"/>
                </g>
                <g transform="matrix(1.30561,0,0,1.30561,-2087.57,248.236)">
                    <rect x="2047.07" y="120" width="300" height="60" style="fill:rgb(254,0,1);"/>
                </g>
                <g transform="matrix(1.59575,0,0,3.26993,-2725.01,78.1528)">
                    <rect x="2107.07" y="60" width="180" height="71.87" style="fill:rgb(254,0,1);"/>
                </g>
                <g transform="matrix(1.30561,0,0,1.30561,-2087.57,222.124)">
                    <rect x="2107.07" y="120" width="180" height="40" style="fill:rgb(131,0,3);"/>
                </g>
                <g transform="matrix(1.30561,0,0,1.30561,-2087.57,222.124)">
                    <rect x="2103.92" y="100" width="23.146" height="20" style="fill:rgb(131,0,3);"/>
                </g>
                <g transform="matrix(1.43207,0,0,1.30561,-2377.69,222.124)">
                    <rect x="2269.46" y="100" width="24.679" height="24.104" style="fill:rgb(131,0,3);"/>
                </g>
                <g transform="matrix(1.30561,0,0,1.30561,-2087.57,248.236)">
                    <path d="M2047.07,120L2047.07,160L2027.07,160L2027.07,120L2047.07,120ZM2047.07,160L2087.07,160L2087.07,180L2047.07,180L2047.07,160ZM2087.07,180L2147.07,180L2147.07,200L2087.07,200L2087.07,180ZM2147.07,200L2147.07,220L2247.07,220L2247.07,200L2147.07,200ZM2247.07,180L2307.07,180L2307.07,200L2247.07,200L2247.07,180ZM2307.07,180L2307.07,160L2347.07,160L2347.07,180L2307.07,180ZM2347.07,160L2347.07,120L2367.07,120L2367.07,160L2347.07,160ZM2347.07,120L2307.07,120L2307.07,140L2267.07,140L2267.07,120L2287.07,120L2287.07,40L2307.07,40L2307.07,20L2087.07,20L2087.07,40L2107.07,40L2107.07,120L2127.07,120L2127.07,140L2087.07,140L2087.07,120L2047.07,120L2047.07,100L2087.07,100L2087.07,120L2087.07,40L2067.07,40L2067.07,0L2327.07,0L2327.07,40L2307.07,40L2307.07,120L2307.07,100L2347.07,100L2347.07,120ZM2127.07,140L2267.07,140L2267.07,160L2127.07,160L2127.07,140Z"/>
                </g>
            </g>
        </g>
    </g>
</svg>
