<?xml version="1.0" encoding="UTF-8" standalone="no"?>
<!DOCTYPE svg PUBLIC "-//W3C//DTD SVG 1.1//EN" "http://www.w3.org/Graphics/SVG/1.1/DTD/svg11.dtd">
<svg width="100%" height="100%" viewBox="0 0 340 340" version="1.1" xmlns="http://www.w3.org/2000/svg" xmlns:xlink="http://www.w3.org/1999/xlink" xml:space="preserve" xmlns:serif="http://www.serif.com/" style="fill-rule:evenodd;clip-rule:evenodd;stroke-linejoin:round;stroke-miterlimit:2;">
    <g transform="matrix(1,0,0,1,0,-1399.85)">
        <g transform="matrix(0.482249,0,0,0.482249,-206.611,1292.73)">
            <rect id="Artboard1" x="428.432" y="222.124" width="705.03" height="705.03" style="fill:none;"/>
            <g id="Artboard11" serif:id="Artboard1">
                <g transform="matrix(2.07362,0,0,2.07362,428.432,-2680.64)">
                    <path d="M260,1539.85L240,1539.85L240,1579.85L220,1579.85L220,1619.85L200,1619.85L200,1659.85L140,1659.85L140,1619.85L160,1619.85L160,1579.85L180,1579.85L180,1539.85L200,1539.85L200,1499.85L60,1499.85L60,1459.85L260,1459.85L260,1539.85Z"/>
                </g>
            </g>
        </g>
    </g>
</svg>
