<?xml version="1.0" encoding="UTF-8" standalone="no"?>
<!DOCTYPE svg PUBLIC "-//W3C//DTD SVG 1.1//EN" "http://www.w3.org/Graphics/SVG/1.1/DTD/svg11.dtd">
<svg width="100%" height="100%" viewBox="0 0 1425 1425" version="1.1" xmlns="http://www.w3.org/2000/svg" xmlns:xlink="http://www.w3.org/1999/xlink" xml:space="preserve" xmlns:serif="http://www.serif.com/" style="fill-rule:evenodd;clip-rule:evenodd;stroke-linejoin:round;stroke-miterlimit:2;">
    <g transform="matrix(1,0,0,1,-17048.6,0)">
        <g transform="matrix(0.855335,0,0,0.855335,2610.44,2141.93)">
            <rect id="Artboard1" x="16880.1" y="-2504.2" width="1664.96" height="1664.96" style="fill:none;"/>
            <g id="Artboard11" serif:id="Artboard1">
                <g transform="matrix(4.87139,0,0,4.87139,16262.6,-2608.57)">
                    <path d="M266.164,96.736C266.324,96.279 266.801,96.014 267.274,96.119C267.747,96.224 268.066,96.667 268.017,97.149C266.633,110.111 265.59,123.442 267.867,136.276C268.447,139.542 267.044,143.145 267.799,146.294L295.428,235.386L300.847,248.98C270.357,251.064 257.157,249.567 226.032,247.345L208.048,289.322C205.364,296.258 204.947,299.327 203.698,303.503C203.074,305.589 204.777,312.616 205.269,314.933C205.708,316.995 209.22,321.644 211.648,322.387C211.648,322.387 227.585,330.571 231.886,332.778C232.535,333.112 232.944,333.781 232.944,334.511L232.944,338.113C232.944,338.637 232.732,339.139 232.357,339.506C231.983,339.873 231.476,340.072 230.952,340.061C213.309,339.644 193.769,338.508 182.916,339.443C171.936,340.388 160.602,342.758 147.19,343.28C146.195,343.318 145.331,342.597 145.19,341.611C144.879,339.443 144.354,335.764 144.065,333.745C143.943,332.895 144.393,332.067 145.171,331.704C149.183,329.836 161.027,324.32 161.027,324.32C165.884,322.834 168.604,318.649 170.904,315.553C173.205,312.456 176.57,308.595 179.381,302.03C218.542,221.734 255.909,124.221 266.164,96.736ZM232.944,231.603C259.268,235.059 269.104,235.884 295.428,235.386L267.799,146.294L232.944,231.603Z" style="fill-rule:nonzero;"/>
                </g>
                <g transform="matrix(4.87139,0,0,4.87139,16262.6,-2989.09)">
                    <path d="M273.165,121.173C273.13,120.389 273.579,119.709 274.324,119.517C275.07,119.325 275.902,119.667 276.356,120.352C276.501,120.57 276.651,120.786 276.804,121C279.272,124.442 280.926,128.383 281.372,132.425C291.786,226.774 319.797,320.542 373.949,391.454C371.617,393.85 367.505,398.122 366.409,396.487C343.704,362.592 326.155,322.828 309.094,279.049C289.547,228.89 275.352,171.575 273.165,121.173Z"/>
                </g>
                <g transform="matrix(4.87139,0,0,4.87139,16262.6,-1711.35)">
                    <path d="M330.915,145.599C353.899,148.334 375.183,136.888 382.587,117.812C383.571,115.277 384.479,112.937 385.246,110.958C386.611,107.443 390.865,105.624 394.969,106.803C395.998,107.098 397.026,107.393 397.975,107.666C400.778,108.471 403.757,108.365 406.371,107.37C411.231,105.518 419.626,102.319 426.838,99.571C434.278,96.737 443.226,99.82 447.035,106.531C452.08,115.425 452.659,125.626 448.62,134.488C444.581,143.351 436.323,150.001 425.986,152.713C408.495,157.303 397.234,158.414 390.347,157.527C395.533,157.007 400.468,156.294 405.269,155.475C418.077,153.376 427.296,143.86 427.842,132.176C427.994,129.74 428.082,127.347 428.099,125.017C427.058,129.141 425.774,133.18 424.345,137.168C422.006,143.786 416.537,149.037 409.325,151.591C409.248,151.622 409.17,151.649 409.092,151.676C390.57,158.088 369.699,158.165 350.344,151.892C340.074,148.567 330.915,145.599 330.915,145.599Z"/>
                </g>
                <g transform="matrix(4.87139,0,0,4.87139,16262.6,-2229.38)">
                    <path d="M312.367,148.227C312.61,142.649 314.25,143.12 315.787,147.037L318.98,153.944C320.831,157.372 324.819,166.517 323.555,170.443C319.677,182.495 315.949,217.09 318.052,218.844C313.404,212.52 305.407,188.608 305.271,177.093L312.367,148.227Z"/>
                </g>
                <g transform="matrix(4.87139,0,0,4.87139,16262.6,-1963.05)">
                    <path d="M324.185,121.404C324.753,117.161 324.99,111.3 326.919,116.323C332.318,130.381 353.503,174.395 364.007,187.366C361.497,189.254 359.279,191.144 351.78,193.426C348.811,194.33 342.318,195.256 339.186,195.469C338.441,195.52 337.835,189.84 339.813,184.176C342.553,176.328 348.241,167.753 347.342,167.729C346.163,167.698 340.146,174.432 336.491,181.747C333.447,187.839 332.638,194.747 332.076,194.623C331.576,194.512 331.174,194.39 330.889,194.257C327.433,192.656 325.027,189.422 323.412,185.123C323.07,184.212 325.174,173.75 328.65,164.07C331.361,156.52 335.637,149.288 335.463,148.458C335.269,147.541 331.474,150.884 328.459,156.547C324.48,164.022 321.04,174.395 320.915,173.036C319.2,154.348 322.665,132.771 324.185,121.404Z"/>
                </g>
                <g transform="matrix(4.87139,0,0,4.87139,16262.6,-1906.81)">
                    <path d="M347.651,126.141C354.402,131.195 371.472,134.695 389.865,137.834C392.876,138.398 398.038,146.732 395.68,146.454C392.052,144.72 388.461,145.038 385.517,148.7C382.935,151.911 380.821,158.442 379.19,161.768C377.767,164.671 375.295,166.985 375.219,167.793C375.092,169.135 362.872,150.729 360.694,147.271L347.651,126.141Z"/>
                </g>
                <g transform="matrix(4.87139,0,0,4.87139,16262.6,-3480.23)">
                    <path d="M292.624,288.268L296.37,307.089C297.979,312.27 301.686,315.891 307.106,318.695L330.796,329.999L325.667,315.262C322.826,308.576 318.54,303.238 312.257,299.762C304.937,296.725 292.624,288.268 292.624,288.268Z"/>
                </g>
                <g transform="matrix(4.87139,0,0,4.87139,16262.6,-3215.48)">
                    <path d="M297.571,259.23C300.645,262.874 305.51,266.757 312.368,269.669L321.712,273.461C328.016,275.811 332.155,279.451 333.724,284.622L338.842,304.689L320.155,297.183C311.656,293.399 305.948,289.948 303.412,282.154L297.571,259.23Z"/>
                </g>
                <g transform="matrix(4.87139,0,0,4.87139,16262.6,-2791.21)">
                    <path d="M305.813,203.231L318.802,243.326C322.367,253.092 326.811,256.388 334.033,261.158L367.89,273.595L360.596,258.23C358.617,253.658 355.483,250.556 351.347,248.731C336.098,242.253 325.947,235.091 321.38,227.179C330.285,234.921 339.583,237.746 349.106,237.752L343.146,226.071C341.346,222.001 337.833,219.537 332.684,218.606C327.381,217.093 322.479,214.802 317.967,211.749C314.301,209.338 309.417,206.032 305.813,203.231Z"/>
                </g>
                <g transform="matrix(4.87139,0,0,4.87139,16262.6,-3804.09)">
                    <path d="M290.604,344.09C291.425,349.949 294.99,354.294 300.455,356.965C305.995,359.012 311.058,361.939 315.827,365.404C314.322,362.549 312.1,359.833 307.922,357.5C303.074,354.793 303.558,352.883 307.771,352.481C310.656,352.206 313.55,352.968 316.449,354.352C313.533,350.03 308.791,346.93 302.145,345.102C298.701,344.108 297.587,342.03 299.862,342.137C303.661,342.317 306.017,341.351 307.196,339.455C305.119,338.45 302.576,338.056 299.538,338.314C297.028,338.527 296.516,337.698 298.863,336.384C301.554,334.877 304.522,333.856 307.892,333.543C305.3,331.227 301.569,330.47 297.232,330.546C293.552,330.61 294.02,330.14 295.601,328.525C297.743,326.338 298.73,324.137 299.346,321.93C295.394,325.972 290.343,325.525 286.624,319.345L290.604,344.09Z"/>
                </g>
                <g transform="matrix(0.873267,4.79248,4.79248,-0.873267,15681.2,-3168.84)">
                    <path d="M259.913,352.883L269.664,352.883C271.94,352.568 274.094,351.5 276.17,349.929L284.894,342.702C276.513,346.139 259.913,352.883 259.913,352.883Z"/>
                </g>
                <g transform="matrix(4.87139,0,0,4.87139,16262.6,-3648.1)">
                    <path d="M274.891,310.223C276.251,307.734 277.341,306.772 277.584,310.585L279.431,319.756C280.082,323.099 279.11,325.656 277.705,328.003C273.933,333.323 271.287,339.522 268.941,345.955C267.817,332.375 268.936,320 274.891,310.223Z"/>
                </g>
                <g transform="matrix(-4.6088,1.57778,1.57778,4.6088,18411.5,-3749.1)">
                    <path d="M268.014,280.443C265.041,277.579 264.797,278.057 264.786,280.804C264.774,284.046 266.702,294.78 268.014,296.872C272.957,304.749 282.14,314.608 286.001,323.209C287.345,309.764 282.81,294.455 268.014,280.443Z"/>
                </g>
                <g transform="matrix(4.87139,0,0,4.87139,16262.6,-3163)">
                    <path d="M283.597,253.511C285.106,249.535 285.192,246.29 287.073,254.209L290.412,266.647C291.386,268.888 290.84,272.802 289.319,277.79C286.132,289.349 284.045,297.63 282.944,306.856C273.573,293.338 275.058,276.019 283.597,253.511Z"/>
                </g>
                <g transform="matrix(4.87139,0,0,4.87139,16262.6,-2877.8)">
                    <path d="M291.162,221.086C291.977,216.694 292.966,215.347 294.4,221.761L299.713,237.408C300.175,239.05 300.2,241.562 299.815,244.89C297.432,257.532 294.017,269.985 293.882,279.253C290.382,272.912 288.899,264.989 286.491,258.862C282.555,251.907 287.699,236.017 291.162,221.086Z"/>
                </g>
                <g transform="matrix(4.87139,0,0,4.87139,16262.6,-2596.53)">
                    <path d="M301.631,191.96C302.446,188.16 302.502,189.162 303.788,192.612C305.963,198.45 308.472,205.266 311.332,210.583C312.623,212.984 312.066,216.185 311.68,218.694C310.036,229.356 303.344,242.121 304.028,248.702L300.354,235.109C294.848,225.826 298.346,207.281 301.631,191.96Z"/>
                </g>
                <g transform="matrix(4.87139,0,0,4.87139,16262.6,-2425.88)">
                    <path d="M323.555,181.464L332.67,201.616C335.249,206.842 340.819,209.246 345.392,210.309L377.701,220.367L374.076,209.718C372.172,204.279 368.663,200.641 363.238,199.154L337.803,190.833C334.208,189.276 326.795,184.915 323.555,181.464Z"/>
                </g>
                <g transform="matrix(4.87139,0,0,4.87139,16262.6,-2172.85)">
                    <path d="M336.803,157.929L343.972,173.294C346.228,177.594 354.564,182.152 360.608,183.579C373.796,186.92 385.291,189.588 396.037,191.959L386.143,178.676C383.592,175.016 379.83,172.318 374.843,170.591L350.773,162.853C346.118,162.205 339.998,159.854 336.803,157.929Z"/>
                </g>
            </g>
        </g>
    </g>
</svg>
