<?xml version="1.0" encoding="UTF-8" standalone="no"?>
<!DOCTYPE svg PUBLIC "-//W3C//DTD SVG 1.1//EN" "http://www.w3.org/Graphics/SVG/1.1/DTD/svg11.dtd">
<svg width="100%" height="100%" viewBox="0 0 2000 2244" version="1.1" xmlns="http://www.w3.org/2000/svg" xmlns:xlink="http://www.w3.org/1999/xlink" xml:space="preserve" xmlns:serif="http://www.serif.com/" style="fill-rule:evenodd;clip-rule:evenodd;stroke-linejoin:round;stroke-miterlimit:2;">
    <g transform="matrix(1,0,0,1,-19467.2,0)">
        <g transform="matrix(0.841563,0,0,0.944547,3242.61,558.783)">
            <rect id="Artboard2" x="19279.1" y="-591.589" width="2375.37" height="2375.37" style="fill:none;"/>
            <g id="Artboard21" serif:id="Artboard2">
                <g transform="matrix(4.9511,0,0,4.41129,16045.2,-1232.1)">
                    <text x="715.78px" y="207.406px" style="font-family:'aspinallogofont';font-size:25px;fill:rgb(35,31,32);">A <tspan x="763.771px 781.178px 804.169px 823.822px 846.813px 869.786px 892.777px 909.207px 932.198px 948.873px 971.864px 993.934px 1016.93px 1038.09px 1061.08px " y="207.406px 207.406px 207.406px 207.406px 207.406px 207.406px 207.406px 207.406px 207.406px 207.406px 207.406px 207.406px 207.406px 207.406px 207.406px ">B C D E F G H I</tspan></text>
                </g>
                <g transform="matrix(4.9511,0,0,4.41129,16045.2,-1232.1)">
                    <text x="715.753px" y="257.406px" style="font-family:'aspinallogofont';font-size:25px;fill:rgb(35,31,32);">J <tspan x="752.007px 773.176px 799.735px 818.707px 845.267px 873.198px 899.758px 926.347px 952.906px 977.908px 1004.47px 1023.61px 1050.17px " y="257.406px 257.406px 257.406px 257.406px 257.406px 257.406px 257.406px 257.406px 257.406px 257.406px 257.406px 257.406px 257.406px ">K L M N O P Q</tspan></text>
                </g>
                <g transform="matrix(4.9511,0,0,4.41129,16045.2,-1232.1)">
                    <text x="694.902px" y="307.406px" style="font-family:'aspinallogofont';font-size:25px;fill:rgb(35,31,32);">R <tspan x="739.339px 756.011px 779.064px 800.448px 823.501px 847.376px 870.429px 895.426px 918.479px 955.415px 978.468px 1003.03px 1026.08px 1049.05px 1072.1px " y="307.406px 307.406px 307.406px 307.406px 307.406px 307.406px 307.406px 307.406px 307.406px 307.406px 307.406px 307.406px 307.406px 307.406px 307.406px ">S T U V W X Y Z</tspan></text>
                </g>
                <g transform="matrix(4.9511,0,0,4.41129,16045.2,-1232.1)">
                    <text x="715.785px" y="369.406px" style="font-family:'aspinallogofont';font-size:25px;fill:rgb(35,31,32);">a <tspan x="759.017px 772.077px 796.218px 811.061px 835.202px 852.755px 876.896px 889.395px 913.536px 926.328px 950.469px 967.314px 991.455px 1007.74px 1031.88px 1038.69px 1062.83px " y="369.406px 369.406px 369.406px 369.406px 369.406px 369.406px 369.406px 369.406px 369.406px 369.406px 369.406px 369.406px 369.406px 369.406px 369.406px 369.406px 369.406px ">b c d e f g h i j</tspan></text>
                </g>
                <g transform="matrix(4.9511,0,0,4.41129,16045.2,-1232.1)">
                    <text x="713.177px" y="419.406px" style="font-family:'aspinallogofont';font-size:25px;fill:rgb(35,31,32);">K <tspan x="759.839px 774.315px 799.812px 821.172px 846.67px 867.078px 892.576px 911.665px 937.163px 951.858px 977.356px 992.612px 1018.11px 1034.59px 1060.09px " y="419.406px 419.406px 419.406px 419.406px 419.406px 419.406px 419.406px 419.406px 419.406px 419.406px 419.406px 419.406px 419.406px 419.406px 419.406px ">l m n o p q r s</tspan></text>
                </g>
                <g transform="matrix(4.9511,0,0,4.41129,16045.2,-1232.1)">
                    <text x="715.795px" y="469.406px" style="font-family:'aspinallogofont';font-size:25px;fill:rgb(35,31,32);">t <tspan x="769.171px 787.48px 824.378px 843.541px 880.439px 908.465px 945.362px 964.258px 1001.15px 1018.71px 1055.61px " y="469.406px 469.406px 469.406px 469.406px 469.406px 469.406px 469.406px 469.406px 469.406px 469.406px 469.406px ">u v w x y z</tspan></text>
                </g>
                <g transform="matrix(4.9511,0,0,4.41129,16045.2,-1232.1)">
                    <text x="792.136px" y="519.406px" style="font-family:'aspinallogofont';font-size:25px;fill:rgb(35,31,32);">A <tspan x="831.901px 844.4px 859.167px 873.862px 888.629px 895.439px 910.206px 930.615px 945.382px 964.472px 979.239px " y="519.406px 519.406px 519.406px 519.406px 519.406px 519.406px 519.406px 519.406px 519.406px 519.406px 519.406px ">s p i n a l</tspan></text>
                </g>
                <g transform="matrix(4.9511,0,0,4.41129,16045.2,-1232.1)">
                    <text x="841.154px" y="581.406px" style="font-family:'aspinallogofont';font-size:25px;fill:rgb(35,31,32);">H <tspan x="867.321px 886.415px 891.414px 909.726px 914.724px 927.225px 932.224px " y="581.406px 581.406px 581.406px 581.406px 581.406px 581.406px 581.406px ">o u s e</tspan></text>
                </g>
                <g transform="matrix(4.9511,0,0,4.41129,16045.2,-1232.1)">
                    <text x="822.676px" y="643.406px" style="font-family:'aspinallogofont';font-size:25px;fill:rgb(35,31,32);">L <tspan x="846.646px 865.739px 870.739px 891.15px 896.149px 913.704px 918.701px 937.794px 942.794px " y="643.406px 643.406px 643.406px 643.406px 643.406px 643.406px 643.406px 643.406px 643.406px ">o n d o n</tspan></text>
                </g>
            </g>
        </g>
    </g>
</svg>
