<?xml version="1.0" encoding="UTF-8" standalone="no"?>
<!DOCTYPE svg PUBLIC "-//W3C//DTD SVG 1.1//EN" "http://www.w3.org/Graphics/SVG/1.1/DTD/svg11.dtd">
<svg width="100%" height="100%" viewBox="0 0 47 47" version="1.1" xmlns="http://www.w3.org/2000/svg" xmlns:xlink="http://www.w3.org/1999/xlink" xml:space="preserve" xmlns:serif="http://www.serif.com/" style="fill-rule:evenodd;clip-rule:evenodd;stroke-linejoin:round;stroke-miterlimit:2;">
    <g transform="matrix(1,0,0,1,-31703,-6788)">
        <g id="linked-in-logo.svg" serif:id="linked in logo.svg" transform="matrix(0.0431495,0,0,0.0431495,31726.3,6811.3)">
            <g transform="matrix(1,0,0,1,-540,-540)">
                <clipPath id="_clip1">
                    <rect x="0" y="0" width="1080" height="1080"/>
                </clipPath>
                <g clip-path="url(#_clip1)">
                    <g transform="matrix(1.69843,0,0,1.69843,5303.96,-29865.1)">
                        <g id="Artboard14">
                            <rect x="-3122.86" y="17584" width="635.882" height="635.882" style="fill:none;"/>
                            <g>
                                <g transform="matrix(0.698925,0,0,0.6978,-3181.19,4654.5)">
                                    <path d="M993.248,18595.8C993.248,18578.4 986.375,18561.8 974.141,18549.6C961.907,18537.3 945.314,18530.4 928.012,18530.4L148.685,18530.4C131.383,18530.4 114.79,18537.3 102.556,18549.6C90.322,18561.8 83.448,18578.4 83.448,18595.8L83.448,19374.9C83.448,19392.2 90.322,19408.8 102.556,19421.1C114.79,19433.3 131.383,19440.2 148.685,19440.2L928.012,19440.2C945.314,19440.2 961.907,19433.3 974.141,19421.1C986.375,19408.8 993.248,19392.2 993.248,19374.9L993.248,18595.8Z" style="fill:rgb(40,104,178);"/>
                                </g>
                                <g transform="matrix(0.58878,0,0,0.58878,-3122.86,6725.76)">
                                    <path d="M320.409,18845.9L157.917,18845.9L157.917,19365.9L320.409,19365.9L320.409,18845.9ZM581.638,18908.6L581.638,18845.9L419.146,18845.9L419.146,19365.9L581.638,19365.9L581.638,19128.9C581.638,19012.1 610.865,18974.2 674.341,18974.2C748.626,18974.2 758.35,19039 758.497,19071.4L758.499,19072.1L758.499,19365.9L920.991,19365.9L920.991,19072.1C920.991,18945.3 890.065,18823.7 712.589,18835.1C638.042,18839.9 600.282,18877.4 581.638,18908.6ZM239.163,18584.9C292.331,18584.9 335.496,18628.1 335.496,18681.3C335.496,18734.4 292.331,18777.6 239.163,18777.6C185.995,18777.6 142.83,18734.4 142.83,18681.3C142.83,18628.1 185.995,18584.9 239.163,18584.9Z" style="fill:white;"/>
                                </g>
                            </g>
                        </g>
                    </g>
                </g>
            </g>
            <g>
            </g>
        </g>
    </g>
</svg>
