<?xml version="1.0" encoding="UTF-8" standalone="no"?>
<!DOCTYPE svg PUBLIC "-//W3C//DTD SVG 1.1//EN" "http://www.w3.org/Graphics/SVG/1.1/DTD/svg11.dtd">
<svg width="100%" height="100%" viewBox="0 0 160 160" version="1.1" xmlns="http://www.w3.org/2000/svg" xmlns:xlink="http://www.w3.org/1999/xlink" xml:space="preserve" xmlns:serif="http://www.serif.com/" style="fill-rule:evenodd;clip-rule:evenodd;stroke-linejoin:round;stroke-miterlimit:2;">
    <g transform="matrix(1,0,0,1,-3093.83,-146)">
        <g transform="matrix(0.860628,0,0,0.860628,485.141,20.1977)">
            <rect id="Artboard3" x="3031.15" y="146.175" width="185.911" height="185.911" style="fill:none;"/>
            <g id="Artboard31" serif:id="Artboard3">
                <g transform="matrix(1.16194,0,0,1.16194,-513.936,-46.7074)">
                    <path d="M3091,226L3071,226L3071,206L3051,206L3051,166L3091,166L3091,186L3111,186L3111,206L3151,206L3151,186L3171,186L3171,166L3211,166L3211,206L3191,206L3191,226L3171,226L3171,266L3191,266L3191,286L3211,286L3211,326L3171,326L3171,306L3151,306L3151,286L3111,286L3111,306L3091,306L3091,326L3051,326L3051,286L3071,286L3071,266L3091,266L3091,226Z"/>
                </g>
            </g>
        </g>
    </g>
</svg>
