<?xml version="1.0" encoding="UTF-8" standalone="no"?>
<!DOCTYPE svg PUBLIC "-//W3C//DTD SVG 1.1//EN" "http://www.w3.org/Graphics/SVG/1.1/DTD/svg11.dtd">
<svg width="100%" height="100%" viewBox="0 0 340 340" version="1.1" xmlns="http://www.w3.org/2000/svg" xmlns:xlink="http://www.w3.org/1999/xlink" xml:space="preserve" xmlns:serif="http://www.serif.com/" style="fill-rule:evenodd;clip-rule:evenodd;stroke-linejoin:round;stroke-miterlimit:2;">
    <g transform="matrix(1,0,0,1,-357.136,0)">
        <g transform="matrix(0.482249,0,0,0.482249,150.525,-107.119)">
            <rect id="Artboard1" x="428.432" y="222.124" width="705.03" height="705.03" style="fill:rgb(254,1,2);"/>
            <g id="Artboard11" serif:id="Artboard1">
                <g transform="matrix(2.07362,0,0,2.07362,469.905,263.596)">
                    <path d="M220,220L240,220L240,240L220,240L220,220ZM80,220L80,240L60,240L60,220L80,220ZM80,80L60,80L60,60L80,60L80,80ZM80,220L80,200L60,200L60,160L20,160L20,140L60,140L60,100L80,100L80,80L100,80L100,60L140,60L140,20L160,20L160,60L200,60L200,80L220,80L220,100L240,100L240,140L280,140L280,160L240,160L240,200L220,200L220,220L200,220L200,240L160,240L160,280L140,280L140,240L100,240L100,220L80,220ZM220,80L220,60L240,60L240,80L220,80Z"/>
                </g>
                <g transform="matrix(2.07362,0,0,2.07362,469.905,263.596)">
                    <rect x="100" y="100" width="40" height="40" style="fill:white;"/>
                </g>
            </g>
        </g>
    </g>
</svg>
