<?xml version="1.0" encoding="UTF-8" standalone="no"?>
<!DOCTYPE svg PUBLIC "-//W3C//DTD SVG 1.1//EN" "http://www.w3.org/Graphics/SVG/1.1/DTD/svg11.dtd">
<svg width="100%" height="100%" viewBox="0 0 540 540" version="1.1" xmlns="http://www.w3.org/2000/svg" xmlns:xlink="http://www.w3.org/1999/xlink" xml:space="preserve" xmlns:serif="http://www.serif.com/" style="fill-rule:evenodd;clip-rule:evenodd;stroke-linejoin:round;stroke-miterlimit:2;">
    <g transform="matrix(1,0,0,1,-1927.07,0)">
        <g transform="matrix(0.765925,0,0,0.765925,1598.92,-170.13)">
            <rect id="Artboard1" x="428.432" y="222.124" width="705.03" height="705.03" style="fill:none;"/>
            <g id="Artboard11" serif:id="Artboard1">
                <g transform="matrix(1.30561,0,0,1.30561,-2009.23,274.349)">
                    <path d="M1987.07,180L1987.07,140L2007.07,140L2007.07,120L2027.07,120L2027.07,100L2047.07,100L2047.07,80L2087.07,80L2087.07,60L2187.07,60L2187.07,80L2227.07,80L2227.07,100L2247.07,100L2247.07,120L2267.07,120L2267.07,140L2287.07,140L2287.07,180L2307.07,180L2307.07,280L2287.07,280L2287.07,320L2267.07,320L2267.07,340L2247.07,340L2247.07,360L2227.07,360L2227.07,380L2187.07,380L2187.07,400L2087.07,400L2087.07,380L2047.07,380L2047.07,360L2027.07,360L2027.07,340L2007.07,340L2007.07,320L1987.07,320L1987.07,280L1967.07,280L1967.07,180L1987.07,180Z"/>
                </g>
                <g transform="matrix(1.30561,0,0,1.30561,-2009.23,274.349)">
                    <path d="M2007.07,180L2007.07,140L2027.07,140L2027.07,120L2047.07,120L2047.07,100L2087.07,100L2087.07,80L2187.07,80L2187.07,100L2227.07,100L2227.07,120L2247.07,120L2247.07,140L2267.07,140L2267.07,180L2287.07,180L2287.07,280L2267.07,280L2267.07,320L2247.07,320L2247.07,340L2227.07,340L2227.07,360L2187.07,360L2187.07,380L2087.07,380L2087.07,360L2047.07,360L2047.07,340L2027.07,340L2027.07,320L2007.07,320L2007.07,280L1987.07,280L1987.07,180L2007.07,180Z" style="fill:rgb(255,255,0);"/>
                </g>
                <g transform="matrix(1.30561,0,0,1.30561,-2009.23,274.349)">
                    <path d="M2067.07,160L2067.07,140L2107.07,140L2107.07,200L2067.07,200L2067.07,180L2047.07,180L2047.07,160L2067.07,160ZM2207.07,160L2227.07,160L2227.07,180L2207.07,180L2207.07,200L2167.07,200L2167.07,140L2207.07,140L2207.07,160ZM2107.07,300L2107.07,320L2087.07,320L2087.07,300L2107.07,300ZM2107.07,320L2127.07,320L2127.07,340L2147.07,340L2147.07,320L2167.07,320L2167.07,360L2107.07,360L2107.07,320ZM2167.07,320L2167.07,300L2187.07,300L2187.07,320L2167.07,320ZM2167.07,300L2147.07,300L2147.07,280L2127.07,280L2127.07,300L2107.07,300L2107.07,260L2167.07,260L2167.07,300Z"/>
                </g>
            </g>
        </g>
    </g>
</svg>
