<?xml version="1.0" encoding="UTF-8" standalone="no"?>
<!DOCTYPE svg PUBLIC "-//W3C//DTD SVG 1.1//EN" "http://www.w3.org/Graphics/SVG/1.1/DTD/svg11.dtd">
<svg width="100%" height="100%" viewBox="0 0 47 47" version="1.1" xmlns="http://www.w3.org/2000/svg" xmlns:xlink="http://www.w3.org/1999/xlink" xml:space="preserve" xmlns:serif="http://www.serif.com/" style="fill-rule:evenodd;clip-rule:evenodd;stroke-linejoin:round;stroke-miterlimit:2;">
    <g transform="matrix(0.0556223,0,0,0.0556223,-1982,-271.84)">
        <g id="Artboard9">
            <rect x="35633.7" y="4887.21" width="837.793" height="837.793" style="fill:none;"/>
            <g>
                <clipPath id="_clip1">
                    <rect x="35633.7" y="4887.21" width="837.793" height="837.793"/>
                </clipPath>
                <g clip-path="url(#_clip1)">
                    <g>
                        <g transform="matrix(1.01775,0,0,1.01775,-646.767,-93.9836)">
                            <path d="M35819.1,5490.28C35840.3,5455.57 35849.3,5423.08 35883.5,5275.39C35919.1,5121.74 35869.9,5085.93 35912.2,5085.93C35949.3,5085.93 35972.4,5102.1 35984,5114.37C35995.7,5126.64 35997.8,5187.1 35976,5320.88C35954.1,5454.67 35924.5,5532.19 35912.5,5533.68C35900.5,5535.18 35872.7,5526.5 35856.2,5517.82C35839.8,5509.14 35815.3,5496.52 35819.1,5490.28Z" style="fill:rgb(11,11,11);"/>
                        </g>
                        <g transform="matrix(1.01775,0,0,1.01775,-646.767,-93.9836)">
                            <path d="M36074.4,5271.45C36074.4,5271.45 35940.7,5327.47 35862.6,5318.68C35784.5,5309.89 35731.6,5295.77 35731.6,5225.62C35731.6,5155.47 35799.4,4984.78 36059.4,4984.78C36319.5,4984.78 36358.7,5194.28 36358.7,5255.08C36358.7,5315.88 36346,5476.82 36098.7,5564.66C35807.4,5668.16 35759.8,5555.64 35749.4,5519.3C35749.4,5519.3 35713.8,5528.13 35719,5564.66C35725.5,5610.49 35742.8,5715.25 35926.2,5715.25C36109.5,5715.25 36470.8,5551.59 36470.8,5275.32C36470.8,4999.05 36225.2,4897.11 36069,4897.11C35912.8,4897.11 35647.6,4999.99 35647.6,5208.09C35647.6,5323.6 35735.1,5354.94 35824.9,5354.94C35914.6,5354.94 36101.2,5288.53 36101.2,5288.53L36074.4,5271.45Z" style="fill:rgb(11,11,11);"/>
                        </g>
                        <g transform="matrix(1.26512,0,0,1.26512,-9586.02,-1391.92)">
                            <path d="M36143.8,5161.33L36174.1,5220.67L36239.9,5231.12L36192.8,5278.26L36203.2,5344.06L36143.8,5313.85L36084.4,5344.06L36094.8,5278.26L36047.7,5231.12L36113.5,5220.67L36143.8,5161.33Z" style="fill:rgb(11,11,11);"/>
                        </g>
                    </g>
                </g>
            </g>
        </g>
    </g>
</svg>
